<svg id="Layer_1" data-name="Layer 1" xmlns="http://www.w3.org/2000/svg" viewBox="0 0 508.73 502.98"><defs><style>.cls-1{fill:#95beb8;}.cls-2{fill:#eace72;}.cls-3{fill:#634c46;}.cls-4{font-size:297.2px;}.cls-4,.cls-5{font-family:SignPainter-HouseScript, SignPainter;}.cls-5{font-size:170.81px;}</style></defs><circle class="cls-1" cx="222" cy="280.98" r="222"/><path class="cls-2" d="M486.67,254c.43.76,1.43.32,1.17-1.75l-1.69-1.45Z"/><path class="cls-2" d="M489.27,239.9c-1-2.41-2.61-5.1-4-3.41,1.76,2.28,1.15,2.9,3.23,5.4.28,2.08-.43,3.66-1,3.33.45.72-.28,3.23.79,4.33a11.2,11.2,0,0,0,.9-4.57,16.07,16.07,0,0,0-.22-2.55,18,18,0,0,0-.77-2.62C488.46,239,489,239.74,489.27,239.9Z"/><path class="cls-2" d="M394.66,64.73l1,.93A5.82,5.82,0,0,0,394.66,64.73Z"/><path class="cls-2" d="M275.46,21.32c1,0,1.4-.1,1.46-.25C276,21.11,275.25,21.16,275.46,21.32Z"/><path class="cls-2" d="M253.45,19.09l1.31.08A2.25,2.25,0,0,0,253.45,19.09Z"/><path class="cls-2" d="M394.66,64.73l-2.5-2.42C391.66,62.62,393.37,63.66,394.66,64.73Z"/><path class="cls-2" d="M481.9,212.63a7.24,7.24,0,0,0,.75,1.7c-.17-.55-.33-1.08-.48-1.64A1.47,1.47,0,0,1,481.9,212.63Z"/><path class="cls-2" d="M437.31,101.89l.69.79a5.44,5.44,0,0,0,1.08.22Z"/><path class="cls-2" d="M462.71,137.32c-.44-.89-1.82-.48-2.54-.5a3.35,3.35,0,0,1,1.9,1.38A1.49,1.49,0,0,0,462.71,137.32Z"/><path class="cls-2" d="M485.53,202.11l.47,1.14C485.87,203,485.69,202.45,485.53,202.11Z"/><path class="cls-2" d="M415.67,79.37a1,1,0,0,0,0-.63A.69.69,0,0,0,415.67,79.37Z"/><path class="cls-2" d="M478.18,302c.09.06.16,0,.24.06C478.34,301.76,478.26,301.66,478.18,302Z"/><path class="cls-2" d="M490.36,254l.06.69a3.23,3.23,0,0,0,.79.15Z"/><path class="cls-2" d="M212.85,21.84H213C214.06,21.48,213.47,21.62,212.85,21.84Z"/><path class="cls-2" d="M29.52,303.88c.29-4.36,3.12,6.31,3.06-.14C32.18,304.44,29.14,298.58,29.52,303.88Z"/><path class="cls-2" d="M481.89,211.52c-.12-.56-.23-1.13-.32-1.7A9.57,9.57,0,0,0,481.89,211.52Z"/><path class="cls-2" d="M32.58,303.74h0l0-.66Z"/><path class="cls-2" d="M127.16,58.91a2.7,2.7,0,0,0,1.12,0C128.17,58.77,127.9,58.74,127.16,58.91Z"/><path class="cls-2" d="M190.43,30.49l-1.68.37A12.43,12.43,0,0,0,190.43,30.49Z"/><path class="cls-2" d="M100.24,83a7,7,0,0,0-1.9,1.66,1.92,1.92,0,0,0,.4-.14A3.43,3.43,0,0,1,100.24,83Z"/><path class="cls-2" d="M75.05,110.69c.21-.09.43-.25.65-.37l.67-1Z"/><path class="cls-2" d="M430.94,398.78a5.38,5.38,0,0,1,2.06-.44C431.87,398.11,435.05,393.91,430.94,398.78Z"/><path class="cls-2" d="M482.67,212.47a1.31,1.31,0,0,1-.78-.95c.09.41.19.79.28,1.17C482.4,212.76,482.6,212.74,482.67,212.47Z"/><path class="cls-2" d="M106.77,92.14l-4.26,3.77C103.76,94.91,105.3,93.54,106.77,92.14Z"/><path class="cls-2" d="M198,469.51l1.3.19A2.85,2.85,0,0,0,198,469.51Z"/><path class="cls-2" d="M91.24,108.4a11.47,11.47,0,0,0-2.83,1.79,2.29,2.29,0,0,0-.16.73Z"/><path class="cls-2" d="M433,398.34s0,0,0,0S433,398.35,433,398.34Z"/><path class="cls-2" d="M451.78,365.79c-2.72,4.65.29,3.13.62,4.67-3,5.76-2.77,1.82-4.75,3.16a34.42,34.42,0,0,0-1.88,5.28,15.39,15.39,0,0,1-2,4.32c-.38,0-.81.42-.72-.36a15.55,15.55,0,0,1-1.71,3.54c-.38.63-.81,1.28-1.25,1.94l-1.45,1.94a32,32,0,0,0-4.82,7.86,1.45,1.45,0,0,1-.78.2,2.84,2.84,0,0,1,2.45,1c-1.59,1.88-2.12,4.23-3.65,4.15,1-1.13.74-1.54.91-2.32l-1.29,2.3c-2.83.61,1.85-3.06.87-3.89-1.42,2.07-2.82,4.45-4.24,6.65a26.46,26.46,0,0,1-4.52,5.28c-1.77-.6,5.8-6.9,1.16-4.22l2.27-1.94,2.19-2c-5,1.63,2.49-2.59-2.37-1.36-.68.69-1.26,1.32-1.78,1.9s-1,1.07-1.45,1.55c-.86,1-1.52,1.83-2.19,2.68a32,32,0,0,1-5.62,5.95c-.6,1.88,1.4.6.79,2.48a18.18,18.18,0,0,1-4.41,4.32,10.11,10.11,0,0,1-3.4,1.25c-2,.44-3.7.66-6,4.17-.88,2.2-.22,4.36-5.48,7.07l.37-2.74a11.09,11.09,0,0,0-4,4.54c-.58,1.09-1.3,2.11-4.9,3.88.71-1.43,4.46-3.95,3.4-3.48-5,1.73-2.31,3-5.53,5.27l-1.63-1c-1.65,1.14-3.3,2.35-5,3.61s-3.34,2.62-5.15,3.82a112,112,0,0,1-11.12,7.2c.21-.67,1.31-1.83-.77-1.35-1.2.73-2.43,1.45-3.69,2.15l-1.9,1-2,.92c-2.67,1.21-5.42,2.37-8.17,3.44s-5.62,1.85-8.38,2.69c-.69.21-1.37.43-2,.62l-2.06.5-4,1-3.44,2.71c-.91.3-1.9-.13-1-.68-4.19.61.06,1-1.72,2.06-2.28.75-3.27.05-1.94-.79-6.65,3.52-20,7.67-28,7.39l1.44-.7a15,15,0,0,0-2,.31,10.61,10.61,0,0,0-1.63.45,18.5,18.5,0,0,0-2.56,1.24,9,9,0,0,1-6,1.3l1.06-.39c-6.65.34-13.6,1.07-20.21,1.1-1.65,0-3.28.08-4.86.05s-3.14-.18-4.65-.32-3-.3-4.33-.51a24,24,0,0,1-3.95-.86c-1,1-4.28.5-7.41.13-.78-.09-1.55-.18-2.28-.23a19.09,19.09,0,0,0-2-.14c-1.21,0-2.1.26-2.4,1-3.69-1.21-4.95-1.87-6.61-2.52a64.33,64.33,0,0,0-8.78-2.88c-2.76-.58-4.49,1-8,.48l.26-1.52-5,.5c-.69-.77-1.34-1.6-2-2.43l-3.26-.52c1.23.45,2.5,1.43,2.19,1.81a28.29,28.29,0,0,1-7.81-2.61c-2.27-1.18-3.83-2.43-3.77-2.82L184,464.76c-2-.44-3.93-1.05-5.9-1.57.47-.48,2.44.07,4.07.28-6.58-.9-.5-1.94-6.53-2.77.61.62-.75.69-1,.93a22.22,22.22,0,0,0-2.43-1.56c-1-.58-2.11-1.18-3.31-1.76s-2.48-1.15-3.76-1.69-2.54-1-3.68-1.52l1.32-.51c-2-1.09-4-2.14-6.12-3.18-1-.52-2.13-1-3.19-1.56l-3.19-1.71c-2.14-1.16-4.34-2.28-6.51-3.51s-4.27-2.6-6.39-4c2.78,2.37,1.1,3.48-1.52,2l-.11-2c-2.18-.2,2.29,2.19-1.73,1.08-3-2.33-1-3,1-2.17l-4.07-2.2c.06-.55,1.09-.13,1.67-.48-2.11-.3-5.5-5.82-8.61-6.17l.09-.54c-2-1.55-3.69-2.87-5.27-4s-2.91-2.34-4.26-3.39l-4-3.18c-1.35-1.1-2.67-2.36-4.18-3.75-1.08.91-3.19-1.54-5.78-2.43-1.94-2.36-3.88-4.95-6-7.59s-4.08-5.54-6.54-8.24A18.84,18.84,0,0,0,86.17,396c-.37-.23-.55-.21-.68-.12s-.31.66-1.35,0c.75-1.11-3.85-6.77-.78-4.36-1.38-1.7-2.58-3-3.54-4.36s-1.89-2.46-2.85-3.67-2-2.46-3.23-3.94l-4.26-5.51c.21,1.3.75,2.57,0,2.21-1.28-1.6-2-4.17-1.36-4.25l.4.38c-4.08-4.82-6.89-11.59-9.17-18.1-1.25-3.21-2.19-6.46-3.36-9.32a40.93,40.93,0,0,0-1.88-4,22.24,22.24,0,0,0-2-3.46l.32.47-2.53-4.52-1.26-2.28-1.15-2.32c-1.31-4.56,1.81,2.37,1.44-1.21a50.24,50.24,0,0,1-3.25-6.86c-.72-2.19-1.24-4.26-1.72-6.26-.25-1-.48-2-.72-3l-.38-1.47-.33-1.5a41,41,0,0,0-1.91-6.18,11.89,11.89,0,0,0,.35-3.27,28.69,28.69,0,0,0-.18-3.94c-.15-1.4-.39-2.88-.67-4.41s-.64-3.11-.87-4.73c-.52-3.22-1.13-6.52-1.47-9.63a36.56,36.56,0,0,1,.19-8.42l-.85.6c-1-2.4.26-3,.44-4.8-.69.28-.74,2.7-1.26,1.2-.19-2.6-.34-5.23-.44-7.87,0-1.33-.14-2.65-.09-4s.1-2.67.14-4l.19-4c.08-1.34.12-2.69.3-4q.49-4,1-8l.27-2,.36-2,.75-4c.5-2.66,1-5.31,1.64-7.92l1.86-7.84c.72-2.57,1.43-5.13,2.15-7.69.94-3.74.22-5.07-.31-6.62s-.72-3.32,1.65-7.76l.82,3.16c.15-1,.3-2,.5-2.92s.47-1.93.72-2.89c.51-1.92,1.06-3.83,1.65-5.75s1.32-3.77,2-5.64l2.22-5.58,4.9-10.9c.87-1.78,1.71-3.56,2.5-5.35.4-.89.79-1.79,1.16-2.69s.73-1.82,1.14-2.69c-.12,1,.27,1.22-.41,2.56a21.46,21.46,0,0,0,3.87-6.12c1.08-2.38,1.72-4.58,1.32-4.85,1.4-2,1.06,0,2.28-1a15.67,15.67,0,0,0,2.69-4.84c.72-1.74,1.4-3.3,2.42-3.65.34-.13-.22,1-.46,1.5.73-2.06,5.84-8,3.54-7.12,1.89-2.21,3.52-4.44,5-6.59.76-1.07,1.5-2.12,2.27-3.09.39-.48.78-1,1.18-1.39s.87-.82,1.33-1.19c.82-3.28,7-7,6.12-9.14,1.41,1.85,8.24-6.15,10.29-9.34-.41,1.34,2.79-1.68,2.4,0,2.94-2.95,5.62-5.69,4.29-6.1,3.81-1.5,6.3-4.49,8.8-6.91a27.59,27.59,0,0,1,3.56-3.26,8.44,8.44,0,0,1,1.83-1,5.41,5.41,0,0,1,2-.28l7-6,7.09-5.38c.58-.44,1.16-.89,1.76-1.31l1.81-1.2c1.2-.8,2.4-1.6,3.6-2.38l3.58-2.34,3.67-2.12c.17.55-.43,1.19-1.4,1.86-.48.34-1.05.69-1.67,1l-1.89,1.15c-2.56,1.55-5,3.05-4.19,4,2.17-1.51,4.07-3,5.86-4.33s3.55-2.51,5.28-3.71c.87-.6,1.75-1.18,2.65-1.76l1.37-.86c.47-.27,1-.52,1.46-.78a68.05,68.05,0,0,1,6.6-3c2.61-.84-1,1.54-1.71,2.27,1.16-.65,2.33-1.27,3.49-1.86s2.37-1.06,3.55-1.57c2.38-1,4.74-1.89,7.06-2.8s4.68-1.58,7-2.44c1.13-.43,2.26-.87,3.36-1.34s2.24-.85,3.33-1.32c0,.2-.88.7-1.76,1.13,1.77-.58,4.26-.86,3.77-1.79l-1.67.76c-3.31-.6,6.31-5,6.48-5.87-2.38,3.56,9.38-1.41,5.3,3.34,1.15-.46,2.54-1.28,2.12-1.88,1.83-.22,2.47,0,.84,1.22a26.58,26.58,0,0,0,3.38-1.29,14.16,14.16,0,0,0,1.7-.84,12.81,12.81,0,0,1,4.78-1.46c.06.49-1.11.9-1.63,1.58,2.84-1.48,5.74-3.08,10.92-3.23-.27.33.37.65-1.15.83a60,60,0,0,0,6.11-1.23l1.44-.37,1.44-.3L241.2,28c1.92-.4,3.87-.77,6-1a35.87,35.87,0,0,1,6.75-.07c-2.81,2.22,3.32.62,3.85,2.48.86-.11,1.72-.25,2.59-.33l2.59-.21-2.08-1a50.59,50.59,0,0,0,6.52-.41,17.39,17.39,0,0,1,6,.1l-1.71.25-1.72.34c1.43-.05,2.85,0,4.28.06l4.28.15-4.79-1.07c4.69-.61-.35-2.4,5.74-1.41-1.27.11,4.62.3,6.86,1.8h0a18.94,18.94,0,0,1,8.06.26c.78.71-1,2-.5,2.42,1.22-.63,3.87-.22,6.61.13s5.55.68,7.1.25c-1,.17-1.25,1.11-1,1.38l2.1-.82c2,.88,2.24,1.14,1.73,1.82,6.16,1.66-1.44-2.76,5.73-.06-.61,0-.38.21-1.64.12,7.24,2.35,14.44,3.11,20.87,6,1.33,2.43-5.93-1.53-4.2.73,9.62,2.68,20.29,5.24,28.93,9.87l-1.53-1c1.18-.9,2.67.24,4.46,1.73s3.92,3.27,6.36,3.94c-1.14-.44-2.08.52-1.65.41a73.79,73.79,0,0,0,9.3,5l5.47,2.8,3,1.56,1.6.84c.54.29,1.07.62,1.62.94l-1.41-.16a58.36,58.36,0,0,0,5.6,4.52c1.05.8,2.14,1.54,3.12,2.34S398,74.31,398.78,75c1.41.24,3.26,1.84,2.71.15A36.52,36.52,0,0,0,404.66,79,43,43,0,0,0,408,82.36c2.35,2.08,4.88,3.85,7.25,5.77l3.57,2.81a35.17,35.17,0,0,1,3.35,3,30.78,30.78,0,0,1,5.35,7.06c-1-1-2.72-2-2-1.19l1.82,1.68c.6.57,1.16,1.17,1.75,1.76l3.47,3.53c.37-1.35-.32-1.44-1-3.61a16.4,16.4,0,0,1,5.22,4.17c-1.77-1.46-2.11-1.15-1.92-.24s.92,2.39,1.24,3.36c.07-.47.79-.2,1-.56,1.61,5.38,2.36-.76,5.68,5.71l-.71.07c.47.48,1,.92,1.45,1.37L445,118.4a18.15,18.15,0,0,1,2.61,3.16c-.4,1.75-2.16-2-3.15-1.45,2.36,3.22,6.76,5,7.56,8.87-1.23-1.24-2.56-3.32-3.89-4.48.25,1,.49,1.8.69,2.45a10.64,10.64,0,0,0,.59,1.58c.42.9.91,1.59,1.6,2.89l-.13-.26c1,2,2.07,4,3,6.09-.16-.58-.35-1.13-.54-1.69,2.82,1.21,4.18,3.41,5.6,5.81.69,1.21,1.4,2.47,2.24,3.75a19.31,19.31,0,0,0,3,3.87c-4.93-4.89-1.6-.39-3.18-.14.42,1.73,1.18,4.26.47,3.79a8.17,8.17,0,0,1,2.16,3.83,10.14,10.14,0,0,0,2.78,4.64c-.36.39,1.36,3.12-.06,3,2.05,3.6.38-1.22,1.08-1.16,2.16,2.54,3,6.29,4.1,10.24.28,1,.57,2,.89,3s.57,2.07.92,3.11a27.68,27.68,0,0,0,2.9,6.15,62.91,62.91,0,0,0,4.08,7.78c.62,1,1.23,2,1.86,3.21a41.25,41.25,0,0,1,1.79,4.37c-.2,2.62-2.19-1.59-2.19-1.59a28.74,28.74,0,0,0,.76,5.49c.39,1.68,1,3.3,1.56,5.12-.55-.67-.77.18-1.1,1.42.66,3,2.1,1.68,2.1,5.76a10.47,10.47,0,0,1-2.46-2.66c.53,1.72,1.18,3.4,1.82,5.12s1.13,3.47,1.58,5.28c-.72,1.09-1.56-2-2.27-3.25.89,4.05,2.16,10.54,3.49,11.73l.27-2.72c.18,1.51-1.07.89-1.44-.2-1.5-3.41-.18-5.15.27-5.42l.65,2.59c1.25-1.51.79-4.17,0-7.08-.38-1.46-1-3-1.51-4.44a23.71,23.71,0,0,1-1.14-4.23l2.44,1.83-2.67-5.09c.18-.63.47-1.19.86-1.29s.86.28,1.24,1.56a5.92,5.92,0,0,0-.59-3.53,4.94,4.94,0,0,1-.47-3.14c.09-.39.23-.25.38.06l-1.45-3.54c.59.62,1.28-1,1.52,1.38a18.71,18.71,0,0,0-.79-4.58,35.78,35.78,0,0,0-1.43-3.49c-.94-2-1.68-3.56-1.27-5l.28.51c-.42-1.11-.73-2-1-2.58a9.14,9.14,0,0,0-.75-1.3c-.4-.55-.63-.51-.86-.4-.47.22-1,.75-3-2.28l2-5.73-1.73-.36c-.29-.93-.9-2.75-.19-2.64-2.31-3-.4.81-2.09-.79-.22-2.41-1.5-5.37-2.62-7.9s-2-4.65-1.14-5.63c-1.75-1,1,4.43-1.77.23.9-1.19.2-2.47-.8-4s-2.47-3.18-2.9-5.35c1.8.55,3,4.5,2.13.13-1.6-.64-2.44-2.54-3.14-4.69a22.93,22.93,0,0,0-2.51-5.9c-.83.37-2-1.23-3.35-3.55a85.79,85.79,0,0,0-5.1-7.62c.82-.06-5.53-10-8.54-14.88l.34-.05c-1.07.12-2.43-1-3.89-2.56-.73-.78-1.48-1.66-2.24-2.54s-1.58-1.69-2.33-2.44c.94-.58,1.79-.3,3.65,1.16-.84-1-1.74-2-2.61-3-1.07-.33-2.12-1.07-4-2.89l1.69-.15c-.89-1-1.84-1.94-2.85-2.87L429.63,94c-1.09-1-2.19-1.94-3.28-3.06-.54-.55-1.08-1.14-1.61-1.76s-1.1-1.22-1.64-1.89c-1.16.66,1.39,6.25-4.37,1.94.29-.68.91-1.72,2.47-.63a9.1,9.1,0,0,1-2.68-2.17l2.89,1.15c-1.9-2.52-1.85-.42-3.56-2.21.71-.68-.85-1.78-.06-2.11.52.37,1.29,1.8,2.24,2.17a36.22,36.22,0,0,1-2.74-3.36,11.53,11.53,0,0,1-1.62-2.74c-.19.58-.89,1-2.52-.26-4.07-3.42-.6-2.09-2.63-4.52-1.39-.36-3.63-3-4.62-1.91-1.22-1-1-1.68-1.25-2.37-1.3-.58-3.82-2.6-5.94-3.92s-3.71-2.1-2.91-.57l.52.49c-.13,0-.26-.14-.41-.21l0,0,0,0a42,42,0,0,1-5.86-3.56c-1.9-1.3-3.82-2.62-5.69-4a68.77,68.77,0,0,0-11.6-7.43l.25-.42c-2.42-1.14-5.15-2.33-7.68-3.49a27.92,27.92,0,0,0-6.88-2.43c-1.43-.64-3-2.35-2.15-2.6-1.94-.68-3.07-.93-4.34-1.42a41.72,41.72,0,0,1-5.3-2.6c4.15.72-1-1.23,4.16,1-4.78-2.33-5.63-3.58-11.45-4.33,2.29-.56-3.27-2.79-5.8-3.25l3.25,2.06A73.35,73.35,0,0,1,329.38,31l1.8-1.15a19.92,19.92,0,0,0-3.72-1.59,37.88,37.88,0,0,0-3.72-1,53,53,0,0,0-7.19-1,46.19,46.19,0,0,1-6.66-.86,22.89,22.89,0,0,1-3.08-.95,15.49,15.49,0,0,1-2.93-1.42c-3.06.63,5.69,1.85,2.88,2.72-4.86-1.09-9.63-4.38-11.21-4.64a11.52,11.52,0,0,0-6.78-.06,15.19,15.19,0,0,1-2.81.51,11.44,11.44,0,0,1-1.84,0c-.68-.05-1.46-.11-2.35-.26.87.66,1.55,2.3-3.79,2.46-4.92-.6-6-2.95-2.76-3.19,1.2,0,1.77.28,1.7.47,1.63-.09,3.78-.18,1.85-1l-.7.54a51.69,51.69,0,0,0-5.39-1c-1.83-.29-3.16-.51-2.32-1-3.84.47-1.66.93,1.14,1.31a53.4,53.4,0,0,0-8.29-.61c-1.28,0-2.56-.07-3.93-.05s-2.86,0-4.52-.1c1.06.3,2,1,1,1-4.87-.24-5.94.07-6.6.49a5.28,5.28,0,0,1-1.11.67A11.33,11.33,0,0,1,245,22c-3.78-.62,1.19-2.26-5.37-1-4.1-.3-1-1.5.58-2.11a21.48,21.48,0,0,1-4.36.7,30.81,30.81,0,0,1-4,.17c-2.55,0-4.81-.28-6.56-.16l3.14-.88a39.54,39.54,0,0,1-5,.95c.66.27,1.33.6,2,.91-1,0-1.83.09-2.46.12s-1,0-1.06-.27c-1.79,1.1,1.77,1.68-1.83,3.41a21.88,21.88,0,0,0-4.78.75,11.94,11.94,0,0,1-2.26.3,1.76,1.76,0,0,1-1.45-.42l2.2-.37a3.83,3.83,0,0,0,1-.29c.36-.19.17-.39-.06-.6-.46-.42-1.09-.91,2.19-1.62a19.8,19.8,0,0,1-4.7.82c-.31-.11.2-.38.69-.55-7.72.27-3,2.5-10.66,4.21.38-.54-.17-.84-1-.95a5.09,5.09,0,0,0-2.41.31c3.06-.85,1.82,1-.77,2.46-5,.7-5.08,2-7.62,2.62l3-.51a4.59,4.59,0,0,1-2.25,1.42c-1.09.45-2.48,1-4.08,1.67-.49-.56,2.84-1.46,1.57-1.35-1.58,1.36-3.76,1.67-6.16,2a26,26,0,0,0-3.69.64,13.47,13.47,0,0,0-3.61,1.57c-2.54.36-.83-1.46-3-1a17.12,17.12,0,0,1-5.92,2.38,16.83,16.83,0,0,0-6.12,2.54c2.19.32,2.34-.07-1.24,2.83l9.18-5.08-5.4,4.35a46.12,46.12,0,0,0,4.17-2.26A14.68,14.68,0,0,1,170.21,38a8.64,8.64,0,0,0-1.92,1.7c0,.21.44.18,1.31.33-2.29.06-4.14,1.18-6,2.39a20.44,20.44,0,0,1-6.24,3.08l-1.17-2.72a26.13,26.13,0,0,0-5,2.18c-.76.43-1.51.89-2.26,1.37a26.59,26.59,0,0,0-2.2,1.55c-1.46,1.1-3,2.25-4.66,3.39s-3.6,2.21-5.72,3.41c1-.41,1.92-.87,2.92-1.22-.52,1.64-5,3.36-7.37,5.44-.29-1-2.15-.23-3.63,0,.55.5-5.88,4.09-5.43,6.2-1.43.5-2.9.94-4.28,1.52-6.53,4.47-5.37,7.65-11.19,12.33,1-2.3-2-.58,1.28-4.48-1.91,1.65-3.75,3-3.33,3.54-.75.26-1.88,1.63-3,3.1s-2.38,3-3.54,3.48c-.47,1,0,2-2.09,3.91-.37.07-.34-.36-.34-.36.17.19-.52,1-.9,1.79s-.48,1.31.75.81a22,22,0,0,0-5.57,4c-.92.84-1.83,1.75-2.73,2.7s-1.71,2-2.56,3c-1.68,2-3.33,4-5,5.76a20.09,20.09,0,0,1-4.65,4.2l-2.45,3.51c-.84,1.21-1.61,2.5-2.43,3.73-1.59,2.5-3.24,4.88-4.57,7-.07-.43-.4-.28.19-1-4.46,5.29.07,5.07-4.91,11.09-1.67,1.3-1.34.3-.81-.81s1.35-2.25.42-1.37c-1.72-.41-2.78,1.72-4,4.36s-2.56,5.78-4.54,7.71l.41-1.22c-2.8,3.11-3.52,9.27-6.31,15.19,0,0-.13-.41-.44-.23a25.48,25.48,0,0,1-.69,4.09c-.38,1.5-.71,3.17-1.18,4.85-.87,3.38-2.1,6.85-2.81,9.92-.57-2.27.28-2.93-1.32-2.23-.73,2.73,2.22-.08.76,5.34-1.22,1.51-3.16,5.15-4.56,5.29.45-1.73,1.06-3.4,1.59-5.1a7.07,7.07,0,0,0-2.17,4.39,25.53,25.53,0,0,1-.93,4.84l-.65-.56c-2.06,8,0,8.59-2.14,17.07l.78-.75c.38,2.51,0,3.45-.51,4.36a6,6,0,0,0-.78,4.31l-2.2,1.09c0,.8,0,1.9,0,3.19s.07,2.77.12,4.33.06,3.19.05,4.78-.06,3.14,0,4.56a25,25,0,0,1-1-6.77c-.12-2.63-.25-5.36-.35-7.46-.46,3.12-1.23,10.66-.47,12.38,0-1.28-.31-2.92.15-4.12a48.17,48.17,0,0,1,.92,15.25c-1.93-.66-2.29,3.4-2.54,8.19s-.08,10.28-1.55,12.61c.21,1.39.36,2.78.49,4.16s.33,2.77.44,4.17c.25,2.78.29,5.61.45,8.49s.42,5.81.64,8.84c.07.76.12,1.52.21,2.29s.23,1.53.35,2.31c.24,1.55.52,3.12.83,4.72,2.12-5.07.75,3.72,3.61,2.35.34,1.46.63,2.45.77,3.13a2.54,2.54,0,0,1,.1,1.18c.09,3.08.15,6.19.29,9.3-.13,1.15-.5.51-.88-.38s-.74-2-1-1.82c.3,1.64.44,2.64.49,3.29a2.19,2.19,0,0,1-.19,1.23c-.27.5-.69.75-.47,3,.8-1.17,2.14,1.8,2.78,5.58l-.11-5.54a19.47,19.47,0,0,1,1.75,5,18.82,18.82,0,0,1,.3,3.41c0,2.1.07,4.25,2.34,8.43L36,332.75c1,2.22,2.65,6.35,4.49,10.39.46,1,.93,2,1.41,3S43,348,43.5,348.79a16.08,16.08,0,0,0,3.2,3.83c0,.92-.26,2.31-1.34.47.57,1.32,1.14,2.69,1.86,4s1.49,2.65,2.28,4c1.6,2.64,3.21,5.31,5,7.78s3.37,4.95,4.82,7.27a40.33,40.33,0,0,1,3.7,6.55l-1.09-.33c1.36,1.68,3.12,2.4,4.08,5-.34.07-1.12-.28-.58.56.88.78,4.36,3.87,5.65,6.43L69,392.83a34.13,34.13,0,0,0,4.49,6.08,59,59,0,0,0,4.59,4.53c3.18,2.64,6.32,5,9.61,8.25-.82.74.15,2.81,1.69,5.15a53.81,53.81,0,0,0,5.12,6.55l-.33.12c2.33,2.3,4.56,4.36,6.8,6.19s4.54,3.37,6.79,4.91,4.57,2.93,6.91,4.39,4.71,3,7.32,4.53a33.6,33.6,0,0,0,5.26,5.19c2.26,1.86,5.05,3.66,7.92,5.6l2.18,1.45c.75.46,1.51.9,2.27,1.36l4.54,2.73c3,1.88,5.91,3.51,8.44,5.19-1.46-1.19,1.05-1.38,3.05-.61,2.28,1.77,7.68,1.91,6.41,3.59l-.9-.45c1.12,2.64,6.62,4.71,10.87,6.32l1.68-2.18a28.6,28.6,0,0,0,8.78,4.83c1.68.63,3.41,1.19,5.15,1.71.87.26,1.74.53,2.61.75l2.63.6c3.47.75,6.74,1.54,9.54,2.27s5.07,1.54,6.46,2.75c1.47,0,3.05.25,4.66.35a37.13,37.13,0,0,0,4.65.16l-.4,1.37,5.25,1.17c1.61.36,3.15.54,4.74.78s3.25.44,5.12.65l3,.32,3.43.16-2.09.85a10.56,10.56,0,0,0,6.36-1.53,19.93,19.93,0,0,1,2.69-1.25,9.78,9.78,0,0,1,3.27-.53l1.43,2.15c2.41.05,4.82.22,7.24.42l1.81.15,1.82.07,3.63.11c2.42,0,4.85.06,7.25-.15a45.28,45.28,0,0,0,7.11-1.36c-.13.32-.36,1-1.92,1.15,4.54-.07,17.7-.52,15.65-3.15.4,2,9.86-1.41,14.74-3.23l-.5,1.54c3.91-2.73,3.92-3.23,9.72-5.07,1.44-.16,1.51.79-.45.88a8,8,0,0,0,2.65-.56,9.47,9.47,0,0,0,1.53-.86,10.36,10.36,0,0,1,4.88-1.68L324.29,479c4.79-1.27,4.31-1.53,6.55-3.41,2.75-1.53,9-2.64,10.08-1.73.36-1,2.51-2.92,5.34-3.64.54.3-.34,1-.78,1.29a33.81,33.81,0,0,0,5.18-1.86c1.46-.72,2.7-1.52,3.89-2.24a22.11,22.11,0,0,1,7.3-3.3,1.18,1.18,0,0,0,1.22.31c-1.46.77-2.91,1.37-4.2,2l-3.41,1.49a17,17,0,0,1-2.82,1.13c.5,1.19,5.48-.82,2.31,2.56,1.77-1.33,4.12-3.23,6.62-5a32.61,32.61,0,0,1,7.52-4.54,2.79,2.79,0,0,1,.82.08l-.41.38a9.89,9.89,0,0,0,2.82-1.7,32.89,32.89,0,0,0,3.93-1.81c.53.31,1.94-.33,3.5-1.21.78-.44,1.6-.94,2.38-1.41s1.46-1,2-1.31c-.92-1.08,2.12-2.76-1.23-2,.4-.15-.33.42-1.8,1.4a7,7,0,0,0-.9.68l.09-.19-5.66,3.37a11.44,11.44,0,0,1,6-4.06c.71-1.45,1.44-3.08,1.92-3.89a34.36,34.36,0,0,0,7-1.63l3.08-.95a4.15,4.15,0,0,1,1.91-.26c1.55-1.34,3.28-2.73,5-4.15.9-.68,1.76-1.43,2.6-2.19l2.49-2.26a56.23,56.23,0,0,0,4.36-4.43,17.48,17.48,0,0,0,2.64-4.27c1.5-1.75,2.48-1.15,3.41-1.4-.83,1.07-2.05,2.07-2.34,2.83.76-.88,1.77-1.89,2.85-2.94l1.66-1.6,1.56-1.68c2-2.2,3.58-4.2,3.33-5.23,2.37-1.69,2.09-.83,1.89-.26-.1.29-.17.51.13.29a16.69,16.69,0,0,0,2.29-2.33L426.1,419a40.33,40.33,0,0,0,7.9-7.49c2.05-2.74,3.75-5.56,5.48-8.38a99.71,99.71,0,0,1,5.4-8.72C446,393,447,391.51,448.29,390a44.89,44.89,0,0,1,4.32-4.48c-.89.84-1.32,1.27-1.72,1.29.8-.94,1.6-1.89,2.35-2.88s1.44-2,2.15-3.05c1.41-2.07,2.8-4.16,4.12-6.3s2.46-4.41,3.67-6.63c.6-1.12,1.22-2.22,1.79-3.35l1.63-3.42,3.29-6.82c1-2.31,2-4.6,3.12-6.86.52-1.13,1.1-2.24,1.62-3.37s1-2.26,1.55-3.38c1.06-2.24,2.19-4.43,3.38-6.59,2.28-5.08,1.36-6,1.59-9.5L483,324c0-2,0-4-.06-6a19.5,19.5,0,0,1,1.58-5.58c.71-1.75,1.5-3.44,2.32-5.2a38.61,38.61,0,0,0,2.2-5.7,24.17,24.17,0,0,0,.64-7.08l-1.24,1.14c.4-1.81.83-4.72,1.14-7.09s.6-4.21,1.14-3.82a2.76,2.76,0,0,1-.19-2.72h.8c0-1.54,0-3.07-.12-4.61l-.33-4.59c.56-3.49,1.32-3.17,2.06-3.25.37,0,.73-.18,1.06-1a13.92,13.92,0,0,0,.75-4.8c-.21-3.91-2-11-2.59-9.58-.08,1.55-.59,3.94-1.39,4l-.32-3.48c-2.31-.66-4.63-3.21-6.47,5.07l1.28,5.85-1.27,1.8c.14-1.62.13-3.24.15-4.87a6.79,6.79,0,0,0-.5,3.52,21.78,21.78,0,0,0,.68,3,4,4,0,0,0-1.43,2.33l1.78,5.88c-1,.58-1.52-2.71-2.46,1,.69,2.76,2.36-2.32,2.47,2.15-1.4,2.64-2.15,1.71-1.67,5.07-.65.37-.94-.37-1-1.68a28,28,0,0,1-.11,5.14c-.17,1.73-.24,3.31.24,4.15-.9,1.32-1.24,3.74-1.63,5.75s-1,3.58-2,3.21a24.93,24.93,0,0,1,0,8c-.75-2.7-1.27-.26-2.18,2.52s-1.86,6-3,5a8.43,8.43,0,0,1,.1,3.82,43.42,43.42,0,0,1-1.22,4.84c-.52,1.72-1.06,3.52-1.6,5.27a37.34,37.34,0,0,0-1.35,5.05,2.67,2.67,0,0,1,.17-1.67c-1.5,3.27-2.54,4-3.79,5.92,1.62,1.17-.27,6.45-.43,9.73-3.52,3.21-1-3.42-3.2-2.92.76.23.36,2.14-.06,3.88s-.9,3.27,0,2.9c-2.58,2.47-1.83,2.33-4.06,3.12,1.88,1.66-1,3-1.12,6.11-3.48,3.63-2.61-.05-4.62,4.94C450.18,370.32,451.78,365.79,451.78,365.79ZM363.87,455v0l2.32-1.27Zm-9.65,4.74c1.21-.5,2.71-1.14,4.27-1.89.54.25.41.93-.6,1.34C358.29,458.61,355.85,459.41,354.22,459.7Zm25.1-2.11c-1.44,1.05-2.09,1.11-2.45,1,.72-.44,1.54-1,2.61-1.69,0-.07.08-.17.09-.25A1.86,1.86,0,0,1,379.32,457.59Z"/><path class="cls-2" d="M381.13,454.42c.21-.16.3-.28.57-.47-.36.09-.72.17-1.06.27l-.32.69Z"/><path class="cls-2" d="M395.8,65.82l-.17-.16a1.39,1.39,0,0,1,.28.44A2.24,2.24,0,0,1,395.8,65.82Z"/><polygon class="cls-2" points="209.66 471.8 209.59 472.15 210.57 472.06 209.66 471.8"/><path class="cls-2" d="M436.17,110.43a1.51,1.51,0,0,0,.2.84A2.12,2.12,0,0,0,436.17,110.43Z"/><path class="cls-2" d="M451,131.42l1.53,3.32A35.89,35.89,0,0,0,451,131.42Z"/><path class="cls-2" d="M460.3,148.78a1.47,1.47,0,0,0,.71.07s0,0,0,0Z"/><path class="cls-2" d="M194.52,39.1a5.68,5.68,0,0,0-.7.27C192.21,40.13,193.32,39.67,194.52,39.1Z"/><path class="cls-2" d="M286.33,27.65a28.28,28.28,0,0,1-3.06.28C284.91,28.25,286.19,28.44,286.33,27.65Z"/><path class="cls-2" d="M107.23,91.73s0,0,0,0l-.45.43Z"/><path class="cls-2" d="M278.93,27.58a13.15,13.15,0,0,0,4.34.35A20.25,20.25,0,0,0,278.93,27.58Z"/><path class="cls-2" d="M484.33,230l.06.94a.26.26,0,0,1,.24.09Z"/><path class="cls-2" d="M484.63,231l.24,1C484.83,231.54,484.79,231.12,484.63,231Z"/><path class="cls-2" d="M485.39,234.2l-.52-2.18A3.8,3.8,0,0,0,485.39,234.2Z"/><path class="cls-2" d="M480.71,204.21l-.57-.18A.72.72,0,0,0,480.71,204.21Z"/><path class="cls-2" d="M478.74,196.54c.4,1.85,0,4.86.95,7.34l.45.15C479.11,203,480.07,198.06,478.74,196.54Z"/><path class="cls-2" d="M473.86,162.85c.77,2.14,1.43,4.32,2.15,6.48.07-1.31.17-3.05,1.43-.2C475.76,160.51,477,171.22,473.86,162.85Z"/><path class="cls-2" d="M465.38,143.45c1.9,3.15.68-.41,1-.39-.73-.93-1.27-1.46-1.44-1.48S465,142.11,465.38,143.45Z"/><path class="cls-2" d="M355.1,41.05l.86-1C353.29,39,355.74,40.48,355.1,41.05Z"/><path class="cls-2" d="M325.78,37.11c.78.49,1.56,1,2.32,1.53l1.56-.7C328.37,37.62,327.09,37.32,325.78,37.11Z"/><polygon class="cls-2" points="311.5 23.98 312.75 24.08 308 23.46 311.5 23.98"/><path class="cls-2" d="M78.21,104.66,80,105C81,103.38,79.91,101.91,78.21,104.66Z"/><path class="cls-2" d="M31.53,205A7.89,7.89,0,0,0,29.82,211C30.36,208.59,31.4,206.25,31.53,205Z"/><path class="cls-2" d="M178.22,475.64l-2.29-.33c1.38.37,2.74.8,4.15,1.09C179.46,476.15,178.83,475.93,178.22,475.64Z"/><path class="cls-2" d="M120.07,119.51c.17-.77-.81-1.2-1.91.25l.29,2.09Z"/><path class="cls-2" d="M109.47,126.35c-.8,2.18-1.33,5,.72,4.9.17-2.64,1-2.59,1.07-5.58,1.1-1.48,2.58-2,2.81-1.32.14-.76,2.21-1.79,2.13-3.22a8.74,8.74,0,0,0-3.47,2.18A11.65,11.65,0,0,0,111.3,125a13.52,13.52,0,0,0-1.09,2.15C109.5,127.46,109.6,126.67,109.47,126.35Z"/><path class="cls-2" d="M59.38,293.51v-1.19A4.72,4.72,0,0,0,59.38,293.51Z"/><path class="cls-2" d="M106.37,394.42c-.59-.63-1-.79-1.09-.73C105.88,394.23,106.38,394.66,106.37,394.42Z"/><path class="cls-2" d="M118.49,409.63c-.26-.33-.5-.59-.75-.88A1.73,1.73,0,0,0,118.49,409.63Z"/><path class="cls-2" d="M59.38,293.51v3.06C59.94,296.68,59.51,295,59.38,293.51Z"/><path class="cls-2" d="M97.56,148.09a5.91,5.91,0,0,0,.55-1.55c-.23.46-.46.89-.71,1.32A1.88,1.88,0,0,1,97.56,148.09Z"/><path class="cls-2" d="M55.77,244l.06-.91a4.71,4.71,0,0,0-.61-.82Z"/><path class="cls-2" d="M61.93,206.22c-.29.82,1,1.47,1.5,1.94A2.84,2.84,0,0,1,63,206.1,1.62,1.62,0,0,0,61.93,206.22Z"/><path class="cls-2" d="M88.21,152l.4-1C88.51,151.22,88.31,151.65,88.21,152Z"/><path class="cls-2" d="M55.21,271.41a.9.9,0,0,0-.47.38C54.91,271.78,55.07,271.63,55.21,271.41Z"/><path class="cls-2" d="M155.21,95.45c0-.1-.1-.13-.13-.21C155,95.47,155,95.59,155.21,95.45Z"/><path class="cls-2" d="M117.46,116.9l.38-.47a3.32,3.32,0,0,0-.46-.65Z"/><path class="cls-2" d="M145.29,433.33l-.11-.11C144.31,432.81,144.77,433.09,145.29,433.33Z"/><path class="cls-2" d="M434.62,372c-3,2.45,1.83-6-2.29-2C433.08,369.87,431.49,375.51,434.62,372Z"/><path class="cls-2" d="M96.86,148.77c-.27.42-.55.84-.85,1.24A7.08,7.08,0,0,0,96.86,148.77Z"/><path class="cls-2" d="M432.33,370h0l-.41.41Z"/><path class="cls-2" d="M221.65,463.52a2.37,2.37,0,0,0-.71-.75C220.94,462.92,221.09,463.12,221.65,463.52Z"/><path class="cls-2" d="M164.77,441.59l1.26.84A8.84,8.84,0,0,0,164.77,441.59Z"/><path class="cls-2" d="M253.39,465a5.41,5.41,0,0,0,2.21.16,2.16,2.16,0,0,0-.34-.18A2.66,2.66,0,0,1,253.39,465Z"/><path class="cls-2" d="M286.19,463.54c-.18-.08-.42-.14-.63-.21l-1,.2Z"/><path class="cls-2" d="M244.07,64.85a4.84,4.84,0,0,1-1.55-1.15C243.08,64.66,238.53,65.34,244.07,64.85Z"/><path class="cls-2" d="M96.9,147.65a1.1,1.1,0,0,1,0,1.12c.2-.31.37-.61.54-.91C97.28,147.67,97.13,147.54,96.9,147.65Z"/><path class="cls-2" d="M255,454l5,.33A49.61,49.61,0,0,0,255,454Z"/><path class="cls-2" d="M431.47,165l-.7-.91A2.09,2.09,0,0,0,431.47,165Z"/><path class="cls-2" d="M274.63,453.55a9.34,9.34,0,0,0,2.86.77,1.78,1.78,0,0,0,.55-.4Z"/><path class="cls-2" d="M242.5,63.68l0,0Z"/><path class="cls-2" d="M210.92,72.58c4.53-1.19,1.69-2.33,2.4-3.62,5.43-1.73,2.87.76,5,1.27A26.9,26.9,0,0,0,222.66,68a12,12,0,0,1,3.89-1.52c.25.27.77.29.24.77A12.16,12.16,0,0,1,230,66c.63-.15,1.29-.3,2-.43l2.09-.31a24.56,24.56,0,0,0,7.82-2,1.33,1.33,0,0,1,.61.41,3.13,3.13,0,0,1-.9-2.47c2.15-.19,3.93-1.45,4.82-.31-1.32.06-1.4.56-2,1l2.22-.69c2.14,1.59-3,.82-2.93,2.1,2.16-.44,4.5-1.1,6.73-1.63a20.74,20.74,0,0,1,6.05-.51c.73,1.68-7.84.75-3.31,2.16l-2.61-.26-2.6-.14c4.09,2.39-3.13,0,.65,2.64.84,0,1.59,0,2.27,0s1.29,0,1.85-.07c1.12-.08,2.06-.21,3-.34a25.38,25.38,0,0,1,7.13-.22c1.53-.9-.49-1.4,1.06-2.31a13.8,13.8,0,0,1,5.39,0,8.42,8.42,0,0,1,2.86,1.5c1.51,1.1,2.67,2.12,6.28,1.24,1.91-.94,2.87-3,7.78-1.24l-2,1.7a8.71,8.71,0,0,0,5.32-.45c1-.39,2.13-.62,5.43.59-1.35.54-5.21-.24-4.27.15,4.14,2.24,3.29-.54,6.7,0l.37,1.81c1.72.31,3.49.57,5.31.81s3.69.41,5.55.76a91.73,91.73,0,0,1,11.35,2.31c-.57.35-2,.45-.42,1.5,1.19.28,2.4.59,3.61.92l1.82.53,1.79.66c2.4.91,4.8,1.89,7.16,2.95s4.59,2.37,6.8,3.58c.55.31,1.1.6,1.63.91l1.57,1,3.05,1.92,3.88.28c.74.39,1.05,1.34.13,1.14,2.93,2.28.6-.73,2.42-.38,1.88.94,2,2.09.63,1.83,6.35,1.8,17.26,7.33,21.91,12.6l-1.35-.41a10.86,10.86,0,0,0,2.74,1.78,14.51,14.51,0,0,0,2.42.71,7,7,0,0,1,4.56,2.87l-.92-.38c4.29,3.92,9,7.75,13.16,11.81,1,1,2.06,2,3,3s1.82,2.07,2.66,3.09,1.61,2,2.32,3a20.52,20.52,0,0,1,1.84,3c1.34-.06,3,2.27,4.72,4.44.42.54.85,1.07,1.26,1.55a14.7,14.7,0,0,0,1.17,1.32c.77.73,1.51,1.1,2.21.79a61.44,61.44,0,0,1,2.36,5.76,48.25,48.25,0,0,0,3.51,7.29c1.32,2.07,3.56,2,5.47,4.5l-1.27.88L429.5,159c-.12.93-.3,1.89-.47,2.84l1.74,2.31c-.48-1-.59-2.47-.12-2.54a21.85,21.85,0,0,1,3.18,6.46c.62,2.15.74,3.93.42,4.15l2.93,4.45c1,1.49,1.83,3.05,2.75,4.58-.66,0-1.56-1.51-2.48-2.63,3.69,4.54-1.08,1.59,2.3,5.75.05-.77,1,0,1.33,0a17.26,17.26,0,0,0,.47,2.49c.24,1,.56,2,.94,3.13s.81,2.25,1.28,3.36,1,2.19,1.36,3.2l-1.26-.45c.54,1.88,1.15,3.79,1.81,5.73.34,1,.68,1.94,1,2.93l.93,3c.62,2,1.29,4.08,1.89,6.17s1,4.24,1.5,6.39c-.19-3.18,1.76-2.89,2.5-.37l-1.38,1.34c1.35,1.45,0-2.77,2,.36.42,3.31-1.43,2.53-2.27.77l1.24,3.85c-.44.31-.85-.57-1.5-.7,1.24,1.47-.4,7,1.53,9.11l-.45.29c.25,2.17.51,4,.77,5.74s.37,3.24.56,4.72.36,2.91.54,4.42.21,3.1.29,4.88c1.41.11,1.16,2.92,2.35,5.07-.28,2.66-.74,5.45-1.12,8.36s-1,5.94-1.1,9.12a14,14,0,0,0,.31,2.16c.11.37.25.48.41.5s.67-.2,1,.85c-1.31.2-1.95,6.53-2.47,3.14-.19,1.9-.28,3.46-.48,4.87s-.34,2.69-.48,4-.27,2.75-.39,4.44-.42,3.63-.69,6c.73-.91,1.21-2,1.5-1.33-.17,1.78-1.38,3.82-1.92,3.43l0-.49c-.33,5.53-2.89,11.42-5.6,16.81-1.26,2.74-2.73,5.31-3.79,7.79a31.21,31.21,0,0,0-1.32,3.66,16.94,16.94,0,0,0-.79,3.43l.07-.5-1.14,4.39-.58,2.2-.69,2.17c-2,3.61.23-2.64-1.83-.24a39.48,39.48,0,0,1-2.13,6.29c-.89,1.8-1.86,3.39-2.81,4.93l-1.41,2.27-.68,1.14-.72,1.13a31.16,31.16,0,0,0-2.58,5,9.6,9.6,0,0,0-2.35,1.72,21.34,21.34,0,0,0-2.37,2.51c-.78.95-1.55,2-2.32,3.13s-1.51,2.31-2.36,3.46c-1.66,2.31-3.3,4.74-5,6.86a27.78,27.78,0,0,1-5.39,5l1,.22c-.75,2.2-2.05,1.65-3.3,2.63.66.31,2.2-1.14,1.64.15-1.47,1.73-3,3.45-4.56,5.15-.8.84-1.55,1.73-2.41,2.51l-2.55,2.38-2.61,2.36c-.87.77-1.73,1.57-2.68,2.28-1.85,1.45-3.72,2.89-5.59,4.32l-1.41,1.07-1.47,1-2.94,2c-2,1.31-3.89,2.65-5.94,3.82l-6,3.63C365,422.69,363,423.81,361,425a7.27,7.27,0,0,0-3.78,4.48c-.57,1.37-1.5,2.67-5.77,3.83l1.35-2.64c-.69.52-1.38,1-2.1,1.53s-1.46.91-2.2,1.36q-2.24,1.32-4.55,2.56c-1.52.86-3.14,1.51-4.74,2.23l-4.81,2.07c-3.26,1.25-6.54,2.43-9.75,3.69s-6.43,2.41-9.56,3.74c.67-.58.56-1,1.81-1.44a16.1,16.1,0,0,0-6.18,1.35c-2.12.83-3.86,1.86-3.77,2.33-2.08.34-.68-.76-2-1a12,12,0,0,0-4.64,1.37c-1.51.67-2.89,1.24-3.75.75-.29-.15.72-.51,1.21-.7-1.72.89-8.52,1.29-6.56,2.36a59.53,59.53,0,0,0-7.17.94c-1.13.21-2.23.4-3.3.52-.54.06-1.07.11-1.59.12a13.32,13.32,0,0,1-1.56-.11c-2.51,1.71-8.66-.07-9.41,2,.26-2.3-8.88-1.53-12.12-.7,1.09-.65-2.76-.77-1.48-1.69-3.63,0-7,.09-6.41,1.32-3.27-1.6-6.65-1.23-9.7-1.22a22,22,0,0,1-4.21-.15,6.12,6.12,0,0,1-1.74-.56,4.45,4.45,0,0,1-1.39-1.18l-8-.5-7.71-1c-.63-.09-1.27-.16-1.9-.27l-1.86-.35-3.71-.72-3.66-.75-3.58-.93c.25-.51,1-.57,2.05-.41s2.29.54,3.56.82c2.54.61,5,1.19,5.07,0-2.28-.37-4.35-.63-6.31-.84s-3.77-.57-5.59-.87q-1.37-.23-2.73-.51l-1.39-.29-1.38-.41a51.1,51.1,0,0,1-5.92-2.24c-2.12-1.13,1.63-.43,2.51-.51-1.12-.3-2.23-.62-3.31-1s-2.12-.8-3.17-1.22c-2.07-.85-4.09-1.75-6.08-2.62s-3.87-1.92-5.8-2.78c-1-.43-1.94-.85-2.91-1.23s-1.92-.83-2.9-1.2c.12-.17,1,.06,1.83.32-1.46-.73-3.14-2.13-3.48-1.15l1.52.53c1.59,2.59-7.21-.44-7.88.05,3.87-1.05-6.62-5-.92-5.82-1-.41-2.4-.71-2.56,0-1.25-1-1.45-1.62.33-1.42a23.89,23.89,0,0,0-2.92-1.25,11.32,11.32,0,0,0-1.6-.46,10,10,0,0,1-3.9-2c.31-.4,1.29.06,2.07-.11-2.73-.74-5.58-1.45-8.84-4.59.39-.07.22-.7,1.27.12a49.11,49.11,0,0,0-4.57-3q-1.16-.63-2.22-1.32L132.25,411c-1.45-.91-2.9-1.87-4.36-3a28.63,28.63,0,0,1-4.2-4.14c3.29.16-1.61-2.51-.62-4.15-.61-.46-1.24-.89-1.83-1.37l-1.76-1.44.61,1.95a37.85,37.85,0,0,0-4.33-3.72,13.9,13.9,0,0,1-3.68-3.78l1.25.87,1.31.82c-.92-.85-1.77-1.76-2.62-2.67l-2.57-2.72,2.23,3.68c-3.37-2.45-1.49,1.89-4.6-2.53.87.7-2.67-3-3-5.45h0a14.41,14.41,0,0,1-4.91-5.09c0-1,2-.74,2.06-1.37-1.23-.3-2.63-2.19-4.12-4.09s-3-3.84-4.35-4.47c.77.49,1.61,0,1.63-.35l-1.93-.7c-.65-1.8-.63-2.13.19-2.3-2.75-4.84-1.06,2.76-3.72-3.41.37.39.4.08,1.14.91-3-6-7.11-10.8-9.2-16.62.89-2.43,2.78,4.57,3.28,2-4.33-7.57-9.57-15.66-12-23.88l.3,1.58c-1.44-.12-1.62-1.76-1.75-3.81s-.26-4.49-1.44-6.39c.46,1,1.8.91,1.42.72A56.19,56.19,0,0,0,68,307.25c-.56-1.59-1.1-3.28-1.72-5.1l-1-2.84c-.33-1-.66-2-.93-3.08l.85,1a45.63,45.63,0,0,0-.61-6.27c-.16-1.14-.37-2.28-.48-3.38s-.19-2.14-.22-3.07c-.81-1-.95-3.14-1.78-1.73a27.92,27.92,0,0,0,.53-4.34,30.75,30.75,0,0,0,0-4.18c-.16-2.74-.68-5.4-1-8-.18-1.33-.37-2.64-.52-3.95a28.68,28.68,0,0,1-.28-3.91,23.63,23.63,0,0,1,1.18-7.67c0,1.21.53,2.91.55,1.95-.2-2.89-.09-5.77-.13-8.67-1.2.6-.78,1.08-1.8,2.85a12.91,12.91,0,0,1-.81-5.83c.51,4,1.8.12,2.66-1.48-.38.25-.7-.37-1.08-.26,2.58-4.29-2.22-1-.1-7.06l.56.41c0-.59,0-1.17-.1-1.76l-.06-1.73a14.23,14.23,0,0,1,.31-3.58c1.49-.8.21,2.56,1.27,2.89.52-3.46-1.41-7.34.65-10.21,0,1.55-.42,3.65-.27,5.21.53-.79.9-1.41,1.19-1.93a9.1,9.1,0,0,0,.66-1.34c.3-.81.42-1.54.82-2.76l-.09.24c.66-1.88,1.28-3.77,2-5.62-.28.45-.52.91-.76,1.37-1.22-2.55-.72-4.76-.11-7.12.31-1.18.67-2.39.92-3.71a14.7,14.7,0,0,0,.41-4.31c.29,6.16.9,1.28,2.21,2.16.86-1.31,2-3.33,2.21-2.58a6.37,6.37,0,0,1,1-3.71,7.82,7.82,0,0,0,1.08-4.61c.52,0,1.09-2.77,2-1.74.91-3.5-1.09.49-1.55,0,.14-3,2-5.75,3.8-8.87.45-.77.91-1.57,1.35-2.39s.94-1.63,1.36-2.49a21.36,21.36,0,0,0,1.92-5.63,47.6,47.6,0,0,0,2.09-7.44c.21-1,.42-2.06.74-3.2a30,30,0,0,1,1.52-3.86c1.82-1.46.56,2.45.56,2.45a22.82,22.82,0,0,0,3-3.83c.8-1.29,1.41-2.67,2.16-4.17,0,.79.66.41,1.69-.1,1.41-2.25-.44-2.47,2.15-4.94a9.15,9.15,0,0,1,.09,3.3c.7-1.4,1.31-2.87,1.93-4.35s1.39-2.9,2.21-4.32c1.2-.15-.18,2.34-.42,3.56,1.91-3.08,5.1-7.91,4.88-9.57l-1.9,1.48c.82-1.06,1.32.19.91,1.11-1.08,3.13-3.12,3.27-3.62,3.12l1.18-2c-1.85.05-3.21,2-4.46,4.34s-2.18,5.24-3.6,7.09l-.59-2.79L93.3,149.1a1.67,1.67,0,0,1-1.43.2c-.34-.21-.45-.77.1-1.8-2.75,2.25-1,2.92-3.52,4.76-.32.18-.33,0-.24-.3L87,155.1c0-.78-1.55-.29-.21-1.87a14.53,14.53,0,0,0-2.37,3.31,27.16,27.16,0,0,0-1.24,3.08c-.64,1.86-1.1,3.28-2.34,3.89L81,163a12.62,12.62,0,0,0-1.24,3.54c-.07.6.12.73.36.82.49.18,1.21.21.65,3.35-1.73.68-3.47,1.37-5.23,2.1l1,1.37c-.4.75-1.16,2.25-1.6,1.72-.31,3.33.82-.22,1,1.86-1.43,1.6-2.46,4.23-3.32,6.5s-1.63,4.13-2.93,4.14c.57,1.78,2.22-3.34,1.43,1-1.44.13-1.79,1.36-2.07,2.93s-.35,3.53-1.5,5.12c-.93-1.5.85-4.68-1.45-1.47.73,1.44,0,3.13-.88,4.88A18.26,18.26,0,0,0,63,206.1c.86.31.59,2,0,4.32a64.55,64.55,0,0,0-1.53,7.89c-.62-.48-2.9,9.63-4.12,14.5l-.28-.19c.85.6,1,2.16,1,4,0,.93-.09,1.94-.16,3s-.06,2,0,3c-1.08-.23-1.49-.94-1.8-3-.11,1.17-.17,2.35-.26,3.52.53.87.76,2,.81,4.27l-1.31-1a32.61,32.61,0,0,0,0,3.56l.37,3.7a38.32,38.32,0,0,1,.17,3.93c0,.68,0,1.37-.09,2.09s-.09,1.44-.19,2.2c1.29.29,3.45-4.74,4.46,1.49-.69.24-1.86.5-2.19-1.14a6.87,6.87,0,0,1,.35,3L57,262.72c-.45,2.74,1,1.4.95,3.57-1,0-.66,1.64-1.45,1.35-.11-.55.36-1.91-.05-2.74a27.82,27.82,0,0,1-.45,3.79,8.6,8.6,0,0,1-.81,2.72c.55-.25,1.33-.08,1.59,1.71.41,4.65-1.07,1.68-1.38,4.46.72,1.07.39,4.11,1.87,4,.15,1.36-.5,1.69-.84,2.26.49,1.17.81,4,1.33,6.11s1,3.6,1.6,2.14v-.63c0,.11.07.24.13.38v0A33.24,33.24,0,0,1,61,297.7c.37,2,.73,4,1,6a54.24,54.24,0,0,0,2.55,11.82l-.48.12,2.66,6.91a22.45,22.45,0,0,0,2.87,5.73c.49,1.29.31,3.36-.45,3,.81,1.62,1.37,2.46,1.87,3.55a30.22,30.22,0,0,1,1.64,4.92c-2.23-3-.21,1.44-2.06-3.15,1.48,4.43,1.15,5.77,4.44,9.78-1.91-1,.13,3.85,1.46,5.68l-.65-3.34a55.12,55.12,0,0,1,3,6.2l-2-.31a20.86,20.86,0,0,0,3,6.24,41.86,41.86,0,0,0,3.95,5,37.39,37.39,0,0,1,3.67,4.63,18.18,18.18,0,0,1,1.3,2.52,11.66,11.66,0,0,1,.84,2.76c2.41,1.43-2.3-4.74.13-3.62,2.31,3.7,3,8.88,3.82,10a9.06,9.06,0,0,0,4.24,4.19,12.48,12.48,0,0,1,2.15,1.36,15.15,15.15,0,0,1,2.45,2.76c-.08-1,.67-2.56,4.12.61,2.66,3.44,1.65,5.73-.53,3.93-.73-.77-.92-1.28-.73-1.38-1.09-.93-2.51-2.19-1.86-.45l.83.05a40.23,40.23,0,0,0,2.65,4c.94,1.33,1.61,2.31.74,2.12,2.73,2.06,1.7.38.23-1.62a41,41,0,0,0,4.73,5.57c.79.79,1.55,1.62,2.41,2.46s1.77,1.78,2.73,2.89c-.45-.87-.58-2,.08-1.32,2.85,3.21,3.73,3.65,4.43,3.76s1.22-.09,3.5,1.68c1.89,2.81-2.31.86,2.6,4.08,2.32,2.79-.42,1.71-1.83,1.14a17.31,17.31,0,0,1,3.18,2.24,24,24,0,0,1,2.57,2.42c1.53,1.64,2.75,3.25,3.9,4.27l-2.53-1.35a28.55,28.55,0,0,1,3.74,2.52c-.21-.62-.39-1.28-.59-1.93,1.17,1.21,2.37,1.95,2.05,2.36,1.85.34.09-2.34,3.46-1.29,1.47,1.74,5.79,3.32,5.61,5-5.44-4.31-.26,1.78-5.24-1.35a15.54,15.54,0,0,1,3.43,2.41c.11.28-.39.15-.81,0,4.88,4.78,3.57.15,9.36,3.83-.59.15-.47.72-.07,1.31a4,4,0,0,0,1.67,1.34c-2.43-1.38-.4-1.92,2.14-1.28,3.5,2.75,4.42,1.88,6.38,3.06L162.64,440a3.77,3.77,0,0,1,2.32.43c1,.4,2.16.91,3.58,1.47-.08.73-2.69-.8-1.86-.05,1.87.06,3.39,1.26,5,2.6a22,22,0,0,0,2.66,2,10.49,10.49,0,0,0,3.23,1.25c1.77,1.43-.48,1.62,1.14,2.76a13.06,13.06,0,0,1,5.15,2.21,13,13,0,0,0,5.37,2.26c-1.11-1.7-1.45-1.52,2.62-1.22L183,451.23l6.13.47c-2.56-1-5.74-1.31-7.17-2.19a6.57,6.57,0,0,0,2.28,0c.17-.12-.14-.42-.57-1.11,1.42,1.49,3.27,1.91,5.2,2.28a15.46,15.46,0,0,1,5.79,1.95l-1.08,2.76a24.87,24.87,0,0,0,9,2.68c1.6.2,3.25.4,5,.73a56.27,56.27,0,0,1,5.67,1.44c-.85-.38-1.72-.7-2.55-1.12,1.38-.83,5.17,1,8,1.13-.45.91,1.16,1.63,2.21,2.48,0-.74,6.19,1.12,7.26-.7,1.19.63,2.37,1.33,3.58,1.88,6.82,1.34,8.13-1.75,14.63-1-2.06.93.9,1.84-3.6,2.29,2.21.17,4.19.49,4.27-.19.63.35,2.18.15,3.82-.06s3.36-.46,4.36,0c.95-.41,1.27-1.43,3.73-1.29.27.21,0,.49,0,.49,0-.25,1-.38,1.66-.63s1.12-.58,0-1.1a17.43,17.43,0,0,0,5.9,1.17c1.1,0,2.23.06,3.38,0s2.3-.17,3.45-.28c2.3-.22,4.57-.44,6.65-.49a15.49,15.49,0,0,1,5.5.41l3.7-.68c1.27-.24,2.55-.57,3.82-.84l7.16-1.51c-.22.35.08.49-.75.56,6.08-.39,3-3.53,9.88-4,1.87.32,1.05.76,0,1.13s-2.24.56-1.1.63c.84,1.52,2.83.84,5.21-.09s5.15-2.07,7.62-1.93l-1,.53c3.71-.07,7.9-3.71,13.32-5.63,0,0-.16.37.14.47a20.87,20.87,0,0,1,2.93-2.22c1.15-.72,2.39-1.59,3.71-2.36,2.61-1.61,5.52-3,7.85-4.5-1,1.9-2,1.71-.47,2.42,2.15-1.27-1.52-1.56,2.72-4.06,1.73-.1,5.22-1.08,6.26-.15-1.35.79-2.77,1.45-4.15,2.18a5.55,5.55,0,0,0,4.11-1.3,19.49,19.49,0,0,1,3.56-2.47l.1.83c6.22-3.69,5.21-5.56,11.81-9.48l-1-.08c1.26-1.9,2.09-2.22,3-2.43a4.52,4.52,0,0,0,3.15-2.18l2.19.89,2-2,2.56-2.83c.93-1,1.91-2.06,2.89-3.06l2.81-2.84a19.76,19.76,0,0,1-3.44,5l-4.31,5c2.22-1.65,7.37-5.88,7.89-7.5-.75.83-1.56,2.06-2.62,2.5A36.79,36.79,0,0,1,395.84,411c.94,1.78,3.7-.49,6.84-3.3s6.45-6.31,8.94-6.73c.72-1,1.47-2,2.25-2.92s1.5-1.94,2.3-2.87c1.57-1.89,3.32-3.66,5-5.53l5.14-5.87c.43-.51.88-1,1.3-1.55l1.22-1.64c.82-1.12,1.63-2.26,2.42-3.46-4.76,1.63,1.84-2.78-1.1-3.91.69-1.12,1.11-1.92,1.45-2.43s.55-.74.69-.78c1.92-1.93,3.87-3.86,5.78-5.84.85-.61.69,0,.39.83s-.77,1.74-.41,1.81a25.68,25.68,0,0,1,1.76-2.33,1.82,1.82,0,0,1,.94-.61c.52-.12,1,0,2.29-1.5-1.34.16-.37-2.54,1.62-5.27l-3.52,3.43a14.75,14.75,0,0,1,2-4.22,13.87,13.87,0,0,1,2-2.26c1.36-1.3,2.74-2.63,3.83-6.68l-.28,2.76c.75-2,2.26-5.62,3.61-9.29.33-.92.66-1.84.94-2.74s.46-1.82.62-2.68a12.59,12.59,0,0,0,.24-4.43c.6-.57,1.73-1.22,1.28.6a35.72,35.72,0,0,0,1.34-3.65c.37-1.27.7-2.58,1-3.89.62-2.65,1.24-5.32,1.64-8s.92-5.19,1.45-7.54a32.09,32.09,0,0,1,1.81-6.35l.57.9c.17-1.9-.62-3.46.47-5.65.28.18.61.89.8,0-.09-1-.47-5.14.37-7.52l.48,2.22a26.93,26.93,0,0,0,1-6.57,47.75,47.75,0,0,0-.14-5.68,96.21,96.21,0,0,1-1.08-11.11c1.1.06,1.88-1.83,2.43-4.24a43.1,43.1,0,0,0,1-7.26l.32.13a78.53,78.53,0,0,0-.4-8.07c-.36-2.53-.79-4.92-1.27-7.27s-1.11-4.66-1.69-7-1.13-4.79-1.84-7.34a26,26,0,0,0,.1-6.52c-.23-2.56-.83-5.42-1.41-8.41-.15-.74-.3-1.5-.45-2.26s-.38-1.5-.56-2.25c-.38-1.52-.75-3-1.12-4.52-.65-3-1.47-5.87-2-8.51.12,1.67-1.71.28-2.49-1.43-.27-2.53-3.77-5.89-1.71-6.24l.28.84c1.17-2.42-1-7.1-2.67-10.75l-2.68.44a23.08,23.08,0,0,0-2.31-8.53c-.65-1.43-1.38-2.85-2.14-4.26-.39-.7-.76-1.4-1.17-2.08l-1.28-2c-1.71-2.61-3.28-5.12-4.56-7.31a12.75,12.75,0,0,1-2.18-5.81c-1-.88-1.79-2-2.75-3.07a29.76,29.76,0,0,0-2.85-2.95l1.24-.69-2.52-4c-.77-1.23-1.61-2.3-2.45-3.45s-1.74-2.29-2.78-3.58l-1.66-2-2-2.22,1.92.69a8.55,8.55,0,0,0-5.1-2.84,18.22,18.22,0,0,1-2.58-.78,7.83,7.83,0,0,1-2.41-1.64l.63-2.4c-1.47-1.53-2.85-3.14-4.21-4.78l-1-1.23L405.7,112l-2.17-2.34a54.66,54.66,0,0,0-4.59-4.42,35,35,0,0,0-5.33-3.5c.3-.15.89-.45,2,.38-2.86-2.78-11.23-10.83-11.8-7.63,1.13-1.66-7-5.27-11.21-7.09L374,86.6c-4.24-.55-4.59-.2-9.37-2.6-1-.82-.37-1.54.88-.35A5.73,5.73,0,0,0,362,82a8.13,8.13,0,0,1-4.09-2l2.09.15c-3.76-2.19-3.65-1.68-6.27-1.8-2.68-.7-7.17-4-7.24-5.36-.86.46-3.45.45-5.64-.9-.13-.57.84-.47,1.33-.42a25.29,25.29,0,0,0-4.36-2.08,37.17,37.17,0,0,0-3.82-1,16.64,16.64,0,0,1-6.58-2.49,1.09,1.09,0,0,0-.53-1c1.38.42,2.65,1,3.81,1.4l3,1.2a14.41,14.41,0,0,1,2.45,1.06c.49-1.19-3.85-3.07.31-3.39-2-.22-4.64-.41-7.31-.81a25.08,25.08,0,0,1-7.51-1.78,2.05,2.05,0,0,1-.45-.61h.5a7.76,7.76,0,0,0-2.82-.69,25.82,25.82,0,0,0-3.55-1.36c-.12-.58-1.39-1.08-2.91-1.5s-3.28-.8-4.43-1c-.14,1.41-3.07.53-.54,2.28-.34-.17.47-.09,2,.22a5.86,5.86,0,0,0,1,.12l-.18.07,5.61,1.42a8.89,8.89,0,0,1-6.25-1.13c-1.37.56-2.86,1.23-3.67,1.48a28.72,28.72,0,0,0-5.28-3.61L298.19,57a3.6,3.6,0,0,1-1.33-1.14c-1.8-.1-3.74-.3-5.71-.5-1-.12-2-.19-3-.23l-3-.12a44,44,0,0,0-5.47.13,14.33,14.33,0,0,0-4.3,1.19c-2,.19-2.25-.92-3-1.39,1.17-.18,2.55,0,3.21-.37-1,.09-2.28.1-3.6.09l-2,0-2,.09c-2.61.14-4.83.45-5.32,1.36-2.52-.48-1.81-.89-1.33-1.16.23-.13.41-.24.1-.3a14.46,14.46,0,0,0-2.88,0l.94-.58a31.49,31.49,0,0,0-9.56-.34,85.33,85.33,0,0,0-8.6,2,77.5,77.5,0,0,1-8.74,2.2c-1.55.22-3.16.49-4.86.61a35.82,35.82,0,0,1-5.48,0c1.08,0,1.61.07,1.88.34-1.08.08-2.17.16-3.25.29l-3.24.54c-2.15.4-4.31.84-6.46,1.34s-4.27,1.21-6.39,1.85c-1.06.32-2.13.62-3.19,1l-3.14,1.12-6.26,2.21q-3.09,1.21-6.19,2.31L183,70.53c-1,.39-2,.76-3.07,1.11-2.06.72-4.13,1.35-6.23,1.91-4.6,1.67-4.57,3-6.8,5.07l-1.64-.87c-1.23,1.29-2.41,2.66-3.6,4a15.49,15.49,0,0,1-4.45,2.48c-1.53.61-3.1,1.12-4.73,1.67a30.14,30.14,0,0,0-5,2.08A18.57,18.57,0,0,0,142.76,92l1.54.16c-1.38.87-3.44,2.42-5.1,3.7s-3,2.23-3.13,1.6a2.18,2.18,0,0,1-1.53,1.85l-.56-.56c-.91,1-1.84,2-2.73,3l-2.6,3.12c-2.52,1.79-2.86,1-3.43.57a1.21,1.21,0,0,0-1.34-.15,11.07,11.07,0,0,0-3.49,2.48c-2.28,2.58-5.4,8.3-4.1,7.8,1-.91,2.86-2,3.48-1.53l-1.93,2.39c1.23,2,1.31,5.26,7.69,1.44l2.71-4.54,2-.22c-1.08.92-2.08,1.93-3.09,2.92a5.14,5.14,0,0,0,2.51-1.83,16.87,16.87,0,0,0,1.34-2.34,3.32,3.32,0,0,0,2.42-.44l2.35-4.94c1.05.34-.59,2.79,2.33,1.12,1.2-2.23-3.05-.22-.41-3.12,2.58-.66,2.54.47,4.24-2,.68.24.43.91-.3,1.81a22.3,22.3,0,0,1,3.2-3.16c1.16-1,2.16-1.93,2.35-2.81,1.41-.19,3.11-1.48,4.6-2.48s2.82-1.59,3.31-.6a19.7,19.7,0,0,1,4.78-5.14c-1.12,2.27.71,1.09,3-.06s4.88-2.54,5.06-1a6.68,6.68,0,0,1,2.22-2.55,33.46,33.46,0,0,1,3.72-2.27l4.22-2.29A26,26,0,0,0,182,79.55c-.21.3-.62.89-1.11,1,2.95-1.07,4-.77,6-1.15-.37-1.95,4-4.09,6.12-6.17,4.24.42-1.41,3,.35,4.27-.36-.7,1-1.68,2.36-2.53s2.55-1.55,1.72-2c3.17.21,2.59-.24,4.51.85-.23-2.48,2.45-1.28,4.4-3.31,4.43.06,1.65,1.93,6,0C214.67,70.67,210.92,72.58,210.92,72.58Zm109.28-1.2v0L318,70.77Zm8.9,3c-1.06-.45-2.38-1-3.81-1.48-.15-.55.36-1,1.24-.57C325.94,72.49,327.93,73.54,329.1,74.42ZM312.6,59c1.56.22,2,.62,2.12,1-.71-.17-1.56-.34-2.67-.55l-.22.12A1.76,1.76,0,0,1,312.6,59Z"/><path class="cls-2" d="M309.45,60.07c-.23,0-.36,0-.65,0,.29.18.55.37.82.53l.64-.29Z"/><path class="cls-2" d="M59.38,292.12v.2a1.4,1.4,0,0,1,.13-.45A2.73,2.73,0,0,1,59.38,292.12Z"/><polygon class="cls-2" points="425.62 156.48 425.91 156.28 425.22 155.76 425.62 156.48"/><path class="cls-2" d="M62.55,239.47a1.3,1.3,0,0,0,.44-.64C62.9,238.85,62.74,239.13,62.55,239.47Z"/><path class="cls-2" d="M66.4,217.35l1.16-3A28.66,28.66,0,0,0,66.4,217.35Z"/><path class="cls-2" d="M71.43,200.86a1.64,1.64,0,0,0-.47-.5s0,0,0,0Z"/><path class="cls-2" d="M168.13,432.7a4.36,4.36,0,0,0,.6.26C170.21,433.46,169.24,433.06,168.13,432.7Z"/><path class="cls-2" d="M104.07,383.34a22.54,22.54,0,0,1,2.12,1.67C105.39,383.79,104.72,382.88,104.07,383.34Z"/><path class="cls-2" d="M254.49,454s0,0,0,0l.55,0Z"/><path class="cls-2" d="M108.65,387.91a10,10,0,0,0-2.46-2.9A16.57,16.57,0,0,0,108.65,387.91Z"/><path class="cls-2" d="M106.77,135.89l.55-.62a.25.25,0,0,1-.11-.21Z"/><path class="cls-2" d="M107.21,135.06l.47-.81C107.41,134.58,107.18,134.86,107.21,135.06Z"/><path class="cls-2" d="M108.67,132.56l-1,1.69C108.12,133.75,108.69,133.15,108.67,132.56Z"/><path class="cls-2" d="M93,154l.3.49A.71.71,0,0,0,93,154Z"/><path class="cls-2" d="M89.54,160c.9-1.39,3.1-3,4-5.07l-.23-.4C93.43,155.81,89.56,158.14,89.54,160Z"/><path class="cls-2" d="M71,183.51c.86-1.81,1.82-3.56,2.72-5.34-.91.74-2.13,1.72-1.17-.84C68.08,183.66,74.28,176.37,71,183.51Z"/><path class="cls-2" d="M64.16,200.78c.74-3.15-.77-.19-1-.44C63,202.45,63,203,64.16,200.78Z"/><path class="cls-2" d="M69.16,332.76l-1.31.16C68.91,335.19,68.32,332.76,69.16,332.76Z"/><path class="cls-2" d="M85.64,353c-.14-.81-.3-1.6-.4-2.43l-1.53-.46C84.32,351.11,85,352.08,85.64,353Z"/><polygon class="cls-2" points="85.39 370.58 84.65 369.74 87.27 373.05 85.39 370.58"/><path class="cls-2" d="M280.51,465.47l-.91-1.5C278,464.37,277.74,466.18,280.51,465.47Z"/><path class="cls-2" d="M371.76,432a6.2,6.2,0,0,0,4.86-2.64C374.76,430.57,372.62,431.3,371.76,432Z"/><path class="cls-2" d="M448.85,172.81l1.28,1.61c-.64-1.09-1.25-2.19-2-3.23C448.4,171.73,448.65,172.26,448.85,172.81Z"/><path class="cls-3" d="M505.67,241.23c.17.79.58.34.44-1.83l-.7-1.53Z"/><path class="cls-3" d="M506.41,226.57c-.52-2.53-1.3-5.42-1.79-3.73.83,2.47.61,3.1,1.58,5.77.16,2.18-.11,3.81-.36,3.45.19.77-.06,3.38.39,4.54a28.24,28.24,0,0,0,.28-4.75c0-.86-.05-1.75-.13-2.66s-.26-1.82-.43-2.75C506,225.63,506.27,226.4,506.41,226.57Z"/><path class="cls-3" d="M407,45.57l1.08.87A13.45,13.45,0,0,0,407,45.57Z"/><path class="cls-3" d="M283.7,1.27a4.15,4.15,0,0,0,1.49,0C284.25,1.21,283.48,1.2,283.7,1.27Z"/><path class="cls-3" d="M261,.13h1.34A5.47,5.47,0,0,0,261,.13Z"/><path class="cls-3" d="M407,45.57l-2.76-2.22C403.87,43.38,405.58,44.53,407,45.57Z"/><path class="cls-3" d="M501.25,197.72a17.28,17.28,0,0,0,.51,1.84l-.39-1.74Z"/><path class="cls-3" d="M450.41,84.55l.71.82a8.62,8.62,0,0,0,.79.5Z"/><path class="cls-3" d="M476.45,121.13c-.49-.9-1.15-.92-1.56-1.13a6.83,6.83,0,0,1,1.44,1.72C476.43,121.68,476.47,121.5,476.45,121.13Z"/><path class="cls-3" d="M501.45,187.48l.36,1.21Z"/><path class="cls-3" d="M428,61.49a.88.88,0,0,0-.17-.42C427.77,61.13,427.85,61.28,428,61.49Z"/><path class="cls-3" d="M498.83,292.06s.07,0,.1,0C498.93,291.81,498.91,291.73,498.83,292.06Z"/><path class="cls-3" d="M507.15,241.23V242a.6.6,0,0,0,.31.15Z"/><path class="cls-3" d="M219.57,4.05l.19,0C220.83,3.77,220.22,3.89,219.57,4.05Z"/><path class="cls-3" d="M31.64,292.35c-.48-4.32,2.22,6.71,1.3.26C32.86,293.25,30.75,287,31.64,292.35Z"/><path class="cls-3" d="M501.12,196.58c-.1-.59-.21-1.19-.32-1.79C500.92,195.6,501,196.15,501.12,196.58Z"/><path class="cls-3" d="M32.94,292.61h0l-.1-.67Z"/><path class="cls-3" d="M131.73,41.49a4.31,4.31,0,0,0,.94-.36C132.61,41.1,132.39,41.17,131.73,41.49Z"/><path class="cls-3" d="M196.15,11.2l-1.7.49C195.13,11.52,195.68,11.35,196.15,11.2Z"/><path class="cls-3" d="M103.33,65.3a16.61,16.61,0,0,0-1.91,1.76c.1-.07.21-.13.33-.23A8.89,8.89,0,0,1,103.33,65.3Z"/><path class="cls-3" d="M77.39,93.75c.16-.13.35-.33.53-.49l.73-1Z"/><path class="cls-3" d="M448.46,394.31a7.93,7.93,0,0,1,1.53-1C449.3,393.49,452.84,389.19,448.46,394.31Z"/><path class="cls-3" d="M501.56,197.64a2.27,2.27,0,0,1-.44-1.06c.09.42.17.83.25,1.24C501.48,197.91,501.56,197.92,501.56,197.64Z"/><path class="cls-3" d="M105.24,69.6l-4.41,4.09C102.09,72.57,103.69,71.08,105.24,69.6Z"/><path class="cls-3" d="M202.25,469l1.35.31A6.67,6.67,0,0,0,202.25,469Z"/><path class="cls-3" d="M88.78,86.84a28.11,28.11,0,0,0-2.51,2.31,4.62,4.62,0,0,0-.35.62Z"/><path class="cls-3" d="M450,393.3h0Z"/><path class="cls-3" d="M471.65,360.12c-2.86,4.95-.72,2.7-1,4-3.51,5.89-2.17,2.38-3.74,4.14-1.07,1.85-1.91,3.56-2.7,5.14a36.88,36.88,0,0,1-2.59,4.25c-.23.12-.63.6-.33-.08-.54,1-1.29,2.19-2.16,3.48l-1.37,2-1.56,2a96.35,96.35,0,0,0-5.64,7.84,2.75,2.75,0,0,1-.59.4c.84-.41,1.22-.27,1.31,0-1.69,2-2.8,3.93-3.8,4.35a7,7,0,0,0,1.36-2.07l-1.61,2.18c-2.12,1.39,2.24-2.95,1.84-3.28-1.64,2.06-3.35,4.35-5,6.5a67.54,67.54,0,0,1-4.91,5.37c-1.07.14,6.36-7,2.2-3.51l2.24-2.17,2.15-2.28c-3.93,2.89,2.53-2.81-1.19-.26l-1.84,2.05-1.55,1.64c-.93,1-1.69,1.86-2.45,2.72a61.93,61.93,0,0,1-6,6.21c-1.07,1.54.83,0-.24,1.52a49.19,49.19,0,0,1-4.67,4.51,21.7,21.7,0,0,1-3,1.94,20.14,20.14,0,0,0-6,4.8c-1.42,1.76-1.59,2.93-6.66,6.36l1.16-1.89a33.72,33.72,0,0,0-4.71,4.2c-.83.86-1.74,1.71-5.28,3.91,1-1.1,4.94-3.83,3.91-3.2-4.75,2.63-2.85,2.56-6.24,5-.36,0-.72,0-1.09-.08-1.77,1.16-3.56,2.37-5.39,3.62s-3.65,2.57-5.62,3.73c-3.89,2.38-7.81,5-12,7.07.37-.42,1.7-1.34-.35-.53l-4,2.14-2,1.06-2.1,1c-2.82,1.28-5.7,2.55-8.57,3.77l-8.72,3.19c-.72.26-1.42.52-2.13.76l-2.15.65-4.17,1.25-3.94,1.95c-1,.32-1.88.27-.85-.12-4.33,1-.12.42-2.1,1.22-2.43.73-3.31.59-1.82,0a131,131,0,0,1-29.72,7.1l1.56-.46c-.8.11-1.5.25-2.14.36s-1.22.2-1.75.32c-1.05.22-1.92.47-2.77.72a24.08,24.08,0,0,1-6.38,1l1.13-.25c-7,.56-14.31,1.22-21.26,1.27-1.73,0-3.44.09-5.12.09l-4.88-.2c-1.59-.08-3.12-.17-4.58-.28a38.09,38.09,0,0,1-4.19-.46c-1,.34-4.48,0-7.78-.32l-2.41-.2c-.77-.08-1.49-.17-2.12-.22-1.26-.09-2.17-.06-2.43.2-3.93-.79-5.31-1.17-7.1-1.57s-4-1-9.44-2.2c-2.94-.53-4.51-.18-8.16-.87l0-.62-5.06-.51c-.82-.42-1.61-.91-2.41-1.39l-3.38-.8c1.32.41,2.76,1.07,2.51,1.18a76,76,0,0,1-8.31-2.51,19,19,0,0,1-4.27-2l-6.17-1.81c-2.05-.6-4.05-1.38-6.08-2.06.36-.13,2.39.58,4,1.05-6.59-1.92-.92-1.06-7-2.82.73.44-.57.17-.75.24-.68-.39-1.64-.79-2.7-1.34s-2.28-1.12-3.56-1.71-2.64-1.21-4-1.79-2.66-1.15-3.84-1.74l1.09.08c-2.1-1.1-4.27-2.22-6.5-3.34-1.1-.57-2.24-1.11-3.36-1.71l-3.35-1.87c-2.24-1.27-4.55-2.51-6.82-3.85L137.85,439c3.12,2.23,2,2.38-.7.74l-.7-1.22c-1.93-.76,2.63,2-1.15.14-3.25-2.35-1.79-2.16.2-1L131.41,435c-.12-.32.87.25,1.25.22-1.84-.85-6.48-5.3-9.08-6.6l-.1-.32L117.91,424c-1.62-1.31-3-2.55-4.43-3.7l-4.15-3.48c-1.4-1.2-2.77-2.55-4.36-4-.51.29-2.89-2.14-5.09-3.61l-6.72-7.59c-.6-.65-1.17-1.34-1.74-2.05l-1.74-2.12c-1.18-1.42-2.4-2.86-3.68-4.31l-1.79-1.84c-.32-.31-.44-.35-.49-.32s0,.42-.89-.44c.15-.64-4.64-6.66-1.88-3.75-1.43-1.82-2.67-3.25-3.67-4.66l-2.91-3.95-3.22-4.3-4.16-6c.51,1.18,1.21,2.44.66,1.9-1.22-1.75-2.43-4.19-2.06-4.06l.35.44A112.9,112.9,0,0,1,55.8,347.22c-1.57-3.27-2.8-6.59-4.12-9.6-.65-1.5-1.31-2.94-2-4.28s-1.18-2.66-1.78-3.82l.26.52L46,325.1c-.37-.83-.76-1.65-1.11-2.48l-1-2.53c-1.52-4.76,1.32,2.71.43-.89-1.13-2.7-2.07-5.15-2.88-7.44s-1.3-4.5-1.86-6.61L38.69,302l-.42-1.55-.36-1.58c-.49-2.12-1-4.28-1.72-6.6a27.81,27.81,0,0,0-.32-3.3c-.12-1.25-.3-2.64-.53-4.11s-.49-3-.78-4.67-.63-3.3-.84-5c-.47-3.43-1-6.94-1.38-10.23s-.4-6.37-.35-8.89l-.31.6c-.54-2.57-.07-3.14,0-5.06-.27.29-.25,2.84-.48,1.23-.12-2.75-.23-5.52-.31-8.32,0-1.39-.13-2.8-.07-4.2l.12-4.23c.05-1.41.09-2.83.14-4.24s.08-2.84.24-4.26c.26-2.83.53-5.68.79-8.52l.21-2.14.32-2.12.63-4.24c.43-2.83.8-5.66,1.43-8.45l1.68-8.37q1-4.14,2-8.23a25.16,25.16,0,0,0,.92-6.71c0-1.48.25-3.21,2.08-8.1l-.17,3c.24-1,.47-2,.74-3l.91-3q1-3,1.92-6c.61-2,1.46-4,2.21-5.95l2.34-5.92c1.7-3.88,3.47-7.71,5.19-11.53l2.77-5.59,1.34-2.8c.44-.93.87-1.86,1.36-2.75a12.49,12.49,0,0,1-.93,2.44c.48-.72,1.14-1.76,1.84-2.92s1.41-2.46,2-3.68c1.29-2.44,2.27-4.59,2.12-4.71,1.41-2.12.62-.31,1.64-1.52a42.87,42.87,0,0,0,3-5,15.55,15.55,0,0,1,2.56-3.87c.25-.21-.44.87-.76,1.42,1.1-2,6.12-8.51,4.42-7.08l5.3-7C82.14,94.1,83,93,83.76,92c.41-.51.81-1,1.22-1.5s.85-.92,1.29-1.35c1.63-2.8,7-7.77,7.17-9,.39,1,7.85-7.34,10.49-10.2-.74,1.09,2.64-2.12,1.8-.79,3.13-3.12,6.15-5.81,5.24-5.67,3.45-2.25,6.34-5.15,9.15-7.48,1.38-1.2,2.67-2.32,3.91-3.25a19.37,19.37,0,0,1,1.79-1.24,9.73,9.73,0,0,1,1.76-.8l7.68-5.87,7.74-5.3c.64-.43,1.26-.87,1.91-1.29l2-1.19,3.89-2.36,3.85-2.32,3.93-2.11c0,.25-.72.75-1.79,1.38-.53.31-1.15.65-1.82,1l-2,1.18c-2.72,1.6-5.33,3.14-4.87,3.42,2.37-1.48,4.49-2.83,6.47-4.11s3.94-2.3,5.85-3.41l2.9-1.65,1.48-.82,1.56-.76c2.12-1,4.39-2,6.95-3.14s-1.33,1-2.15,1.57l3.75-1.81c1.24-.59,2.53-1.06,3.78-1.58l7.45-2.94,7.36-2.53,3.59-1.3,3.57-1.17a10,10,0,0,1-2,.81c1.89-.56,4.43-1.12,4.11-1.45l-1.81.63c-3.2.3,7.18-3.35,7.46-3.72-3,1.89,9.71-1.94,4.88.7,1.24-.37,2.78-.92,2.43-1.12,1.89-.36,2.51-.34.68.41,1.71-.45,2.82-.79,3.65-1s1.35-.39,1.85-.55A33.56,33.56,0,0,1,227,7.11c0,.2-1.25.5-1.86.84a48.69,48.69,0,0,1,11.65-2.42c-.31.16.33.23-1.27.43,2.3-.3,4.42-.65,6.47-1l1.53-.27L245,4.5l3-.39c2-.25,4.08-.5,6.26-.71,1.09-.12,2.22-.14,3.4-.16s2.39,0,3.67,0c-3,.94,3.47.2,4,.93.91,0,1.82-.14,2.73-.16l2.74,0-2.2-.41c2.4.06,4.66,0,6.84-.06a36.81,36.81,0,0,1,6.33.19l-1.79,0-1.79.11c1.5,0,3,.09,4.49.18l4.49.27-5.06-.67c4.87,0-.46-1,5.92-.29-1.31,0,4.81.31,7.24,1.17h0a49.68,49.68,0,0,1,8.36.75c.88.36-.86.73-.29,1,1.21-.16,4,.33,6.83.78s5.8.88,7.31,1c-1-.07-1.13.3-.83.45l2,0c2.14.66,2.44.81,2,1,6.5,1.6-1.85-1.4,5.8.79-.62-.11-.35,0-1.63-.18,7.68,2.13,15,3.75,21.81,6.43,1.8,1.4-6.12-1.88-4-.49a194.18,194.18,0,0,1,29.94,11.46L371,26.4c.86-.17,2.5.83,4.53,2.09a54.1,54.1,0,0,0,6.82,3.81c-1.13-.58-1.73-.29-1.37-.24,3,1.8,6.12,3.54,9.68,5.43,1.75,1,3.57,2.1,5.55,3.25l3.06,1.82,1.62,1c.54.34,1.08.71,1.63,1.07l-1.22-.54c1.61,1.3,3.8,2.9,6,4.52,1.11.81,2.26,1.59,3.3,2.41l2.86,2.33c1.21.61,3.19,2.22,2.21.95,1.23,1.22,2.5,2.35,3.75,3.48s2.44,2.29,3.68,3.37c2.48,2.17,5,4.16,7.36,6.32L434,70.57c1.17,1.06,2.35,2.08,3.4,3.22a81.28,81.28,0,0,1,6.08,6.95c-1-1.06-2.58-2.35-1.78-1.51l1.84,1.83c.6.62,1.17,1.27,1.76,1.91l3.49,3.84c-.19-.92-.68-1.21-1.84-3.1a41.36,41.36,0,0,1,4.85,4.86c-1.65-1.68-1.79-1.55-1.37-.79s1.4,2.13,1.9,3c-.1-.35.45.09.46-.13,2.71,4.79,1.29.14,5.45,6.33l-.44-.17,1.36,1.55c.43.52.86,1.05,1.3,1.57.86,1.06,1.71,2.16,2.56,3.41.28,1.32-1.92-2.27-2.39-2.17,2.44,3.42,5.72,6.15,7.26,9.71-1.08-1.43-2.46-3.6-3.66-5,.49.93.86,1.65,1.18,2.25s.56,1.09.81,1.54c.51.88,1,1.62,1.79,3l-.15-.27c1.19,2.06,2.43,4.08,3.56,6.15-.24-.55-.52-1.09-.8-1.63a28.18,28.18,0,0,1,4.8,6.71q1.08,1.89,2.29,3.94c.77,1.4,1.62,2.84,2.63,4.32-3.91-5.75-1-.78-1.74-1,.67,1.69,1.76,4.22,1.25,3.6a20.65,20.65,0,0,1,2.16,4.09,26.61,26.61,0,0,0,2.56,5c-.09.27,1.45,3.27.7,2.78,1.92,3.89-.12-1.07.26-.84,3.37,5.87,5.24,14.84,9.08,23.7,1.43,3.9,2.27,6.23,3.19,8.46.45,1.12.89,2.22,1.37,3.5s.87,2.79,1.4,4.66c.28,2.62-1.18-1.92-1.18-1.92.34,2.09.69,3.9,1.11,5.66s.92,3.48,1.34,5.42c-.31-.76-.31.09-.31,1.32.61,3.12,1.07,2,1.53,6.15a18.12,18.12,0,0,1-1.33-3c.41,1.83.88,3.64,1.34,5.47s.74,3.7,1.07,5.61c-.2,1.07-.8-2.25-1.2-3.57.69,4.29,1.78,11.14,2.3,12.45l0-2.81c.14,1.58-.38.86-.61-.3-.89-3.65-.49-5.36-.32-5.6l.47,2.73c.39-1.48,0-4.24-.58-7.31-.25-1.55-.72-3.14-1.08-4.7s-.73-3.09-1-4.47l1.23,2.14-1.68-5.5c0-.62,0-1.16.2-1.2s.42.38.71,1.73a12.24,12.24,0,0,0-.32-2.28,14.14,14.14,0,0,0-.39-1.36,13.08,13.08,0,0,1-.64-3.22c0-.39.06-.23.17.11l-1.12-3.76c.34.7.43-.78.85,1.6a42,42,0,0,0-1-4.69c-.42-1.38-.84-2.59-1.22-3.68a20.21,20.21,0,0,1-1.41-5.17l.21.55c-.37-1.16-.64-2.05-.9-2.71s-.45-1.11-.6-1.41c-.29-.6-.39-.62-.47-.55s-.31.56-1.82-2.78l-.15-5.17-.89-.7c-.33-.95-1-2.81-.66-2.56-1.77-3.34,0,.69-1.18-1.19a67.06,67.06,0,0,0-3-8.09c-1.19-2.61-2.15-4.81-1.93-5.51-1.14-1.39,1.58,4.37-.84-.21.17-.89-.49-2.24-1.36-3.88A40,40,0,0,1,481,132c1.1,1,2.76,4.84,1.17.67a17.36,17.36,0,0,1-2.88-5,52.53,52.53,0,0,0-3-5.88c-.36.11-1.44-1.62-2.85-4s-3.38-5.38-5.15-8c.51.14-6.26-10-9.69-14.77l.2.06c-.64-.22-1.86-1.54-3.28-3.22-.69-.85-1.46-1.77-2.22-2.7s-1.58-1.8-2.32-2.61c.44-.15,1.12.32,2.79,2-.87-1.07-1.8-2.09-2.69-3.13a25.34,25.34,0,0,1-3.57-3.45l1.09.42c-.91-1-1.84-2-2.81-3.07l-3.12-3c-1.06-1-2.15-2.11-3.26-3.26l-1.68-1.8c-.6-.59-1.2-1.21-1.81-1.85-.64.1,3.05,4.88-2.57,0,0-.39.12-.92,1.61.35a25.66,25.66,0,0,1-2.65-2.38L434.82,69c-2.18-2.37-1.48-.88-3.31-2.68.31-.26-1.18-1.52-.7-1.5a28.67,28.67,0,0,0,2.33,2.24c-1-1-2.13-2.19-3.07-3.22S428.32,62,428,61.49c0,.34-.35.4-2-1-4.17-3.58-1.11-1.59-3.41-3.85-1.15-.7-3.74-3.09-4.18-2.68a6.34,6.34,0,0,1-1.72-1.9c-1.21-.76-3.79-2.86-5.91-4.31s-3.67-2.4-2.55-1.21l.57.45-.39-.25,0,0,0,0c-2-1.23-4-2.56-5.89-3.94l-6-4a118.23,118.23,0,0,0-12.15-7.47l.11-.16c-2.42-1.34-5.21-2.62-7.78-3.9a54.77,54.77,0,0,0-6.89-3c-1.48-.67-3.35-1.91-2.62-1.84-1.95-.8-3.06-1.2-4.35-1.75s-2.8-1.2-5.58-2.46c4.08,1.24-1.24-.82,4.14,1.36-5-2.15-6.07-3-11.77-4.54,2.08.17-3.71-1.93-6.23-2.62L346.94,14c-2.8-.87-5.22-1.74-7.68-2.61l1.54-.19a33.49,33.49,0,0,0-3.9-1.36c-1.28-.39-2.55-.73-3.79-1-2.5-.61-4.88-1.22-7.23-1.56s-4.6-.8-6.77-1.29c-1.08-.24-2.14-.55-3.2-.82s-2.09-.57-3.12-.92c-3-.07,6,1.39,3.23,1.46-5.06-1-10.21-2.9-11.82-3.16A28.61,28.61,0,0,0,297.31,2c-.85,0-1.72,0-2.83,0-.55,0-1.17-.08-1.87-.16s-1.51-.11-2.43-.22c.92.31,1.74,1-3.77.81-5.12-.48-6.26-1.48-3-1.42,1.23.08,1.83.2,1.77.27,1.67,0,3.87.11,1.84-.3l-.68.18c-1.28-.22-3.69-.45-5.57-.67S277.53.19,278.37,0c-3.92.13-1.68.35,1.21.54-3.32-.25-5.91-.32-8.53-.38-1.31,0-2.63-.08-4,0s-2.93,0-4.65,0c1.09.1,2.1.36,1,.38-5,0-6.12.12-6.81.3a8.46,8.46,0,0,1-1.17.28,27.71,27.71,0,0,1-3.18.42c-3.86-.07,1.32-1-5.47-.15-4.19.07-.94-.56.7-.88-1.54.24-3,.38-4.48.49s-2.81.3-4.1.39c-2.58.18-4.84.26-6.62.44l3.25-.6c-1.94.37-3.55.53-5.17.79.64,0,1.29.13,1.93.21-1,.06-1.85.18-2.49.27s-1.05.1-1,0c-1.91.66,1.62.52-2.19,1.63-1.28.1-3.2.51-4.91.83-.86.17-1.67.31-2.32.38a3.42,3.42,0,0,1-1.4,0c1-.22,1.72-.35,2.25-.44a8.24,8.24,0,0,0,1.06-.23c.39-.12.22-.18,0-.25-.41-.12-1-.26,2.38-.91-1.29.31-2.88.57-4.8.85-.3,0,.24-.19.75-.31-7.7,1.14-3.33,1.48-11.15,3.26.45-.29,0-.35-.81-.29a12.35,12.35,0,0,0-2.41.53c3.12-.88,1.64.15-1.14,1.22-5,1.14-5.32,1.72-7.91,2.43l3-.72a10.1,10.1,0,0,1-2.45,1c-1.15.4-2.59.93-4.27,1.55-.38-.17,3-1.22,1.77-.93a29.92,29.92,0,0,1-6.33,2.1c-1.18.32-2.44.58-3.67,1a33.69,33.69,0,0,0-3.75,1.54c-2.47.71-.47-.53-2.64.14a62.51,62.51,0,0,1-6,2.47,42.86,42.86,0,0,0-6.21,2.72c1.93-.35,2.17-.59-1.82,1.73l9.65-4.73-6,3.47c1.48-.66,3-1.44,4.38-2.13a27.56,27.56,0,0,1,3.55-1.62,13.85,13.85,0,0,0-2.18,1.27c-.09.12.36,0,1.15-.15a30.7,30.7,0,0,0-6.14,2.65c-2,1.08-4.13,2.11-6.49,3.11l-.38-1.13c-1.78.76-3.41,1.56-5,2.41l-2.37,1.3L152.7,29l-1.16.74c-1.57,1-3.2,2.05-5,3.14s-3.75,2.18-5.87,3.51c.94-.5,1.86-1.07,2.83-1.53-.92,1.06-5.17,3.37-7.81,5.27,0-.49-1.75.47-3,1,.3.14-6,4.23-6.28,5.4-1.3.73-2.66,1.4-3.91,2.21C116,53.6,115.85,55.23,110,60.24c1.49-1.85-1.37.25,2.37-3.39-2,1.69-3.78,3.17-3.63,3.4a27.14,27.14,0,0,0-3.27,3,28.5,28.5,0,0,1-3.68,3.55A13.5,13.5,0,0,1,99,70.24c-.29.16-.13-.15-.13-.15a13.78,13.78,0,0,1-1.23,1.55c-.49.66-.74,1.11.28.35-6.46,4.83-15.12,16.29-20,21.27l-2.65,3.53c-.9,1.22-1.73,2.52-2.61,3.77-1.7,2.52-3.46,4.94-4.85,7.09.08-.34-.16-.12.4-.92-4.11,5.77-1.43,4.26-6,10.84-1.29,1.62-.84.65-.24-.47s1.43-2.3.63-1.29c-.89.1-2,2.26-3.43,4.89s-3,5.72-4.55,8l.53-1.2c-2.26,3.51-4.31,9.18-7.06,15.35,0,0,0-.34-.16-.11-.33,1.12-.78,2.47-1.32,4s-1,3.14-1.65,4.83c-1.13,3.4-2.56,6.93-3.43,10.06.17-2.08.69-2.88-.19-1.89-.87,2.79,1.05-.52-.67,5-.85,1.71-2.49,5.59-3.1,6,.48-1.77,1.13-3.48,1.68-5.23a16.64,16.64,0,0,0-1.82,4.64c-.42,1.75-.76,3.53-1.22,4.9l-.2-.44c-2.27,8.14-1.34,8.49-3.47,17.27l.44-.86a17.41,17.41,0,0,1-.75,4.48,15.43,15.43,0,0,0-.8,4.45l-1,1.33c-.09.82-.22,1.93-.37,3.24s-.19,2.83-.3,4.42-.24,3.25-.36,4.89S29,217,29,218.46a45.94,45.94,0,0,1,.07-6.88c.16-2.66.33-5.44.46-7.56-.47,3.2-1.35,10.93-1.18,12.64a29.68,29.68,0,0,1,.38-4.22c0,4,0,9.23-.48,15.64-.79-.62-1,3.58-1.18,8.51s0,10.58-.56,12.95l.27,4.28c.14,1.42.26,2.84.37,4.28.24,2.86.35,5.75.61,8.7s.63,5.94,1,9c.09.77.16,1.55.27,2.34s.26,1.56.39,2.35c.28,1.59.57,3.2.86,4.84.34-4.87.72,3.82,1.77,2.78.29,1.52.57,2.55.72,3.25a6.1,6.1,0,0,1,.21,1.2c.47,3.1.91,6.21,1.42,9.31.14,1.12-.14.43-.45-.51s-.6-2.12-.7-1.95c.35,1.67.56,2.68.7,3.32a4.27,4.27,0,0,1,.11,1.17,6.83,6.83,0,0,0,.28,2.85c.17-1,1.25,2.11,2.16,5.89l-1-5.42a48.72,48.72,0,0,1,1.61,5.2c.33,1.33.58,2.33.77,3.35a40.07,40.07,0,0,0,2.68,8.53l-1.33-2.75c.82,2.33,2.54,6.54,4.28,10.72.44,1.05.89,2.09,1.32,3.1s1,1.94,1.43,2.82a39.08,39.08,0,0,0,2.52,4.27c.23.85.4,2.05-.57.11C53,353.37,61.05,365.39,65.7,373.23l-.73-.59A53,53,0,0,1,68.81,378c-.18,0-.76-.55-.18.29A71.31,71.31,0,0,1,74,385.16l-1.71-1.83a59.14,59.14,0,0,0,4.64,6.2c1.49,1.8,2.91,3.41,4.31,5s2.9,2.92,4.38,4.42,3,3.1,4.62,4.82c-.33.28,1,2.11,2.8,4.28s4,4.73,5.66,6.29l-.2,0c2.41,2.32,4.65,4.46,6.86,6.41s4.47,3.64,6.65,5.37,4.43,3.29,6.71,4.95,4.6,3.4,7.2,5.06c1.42,1.31,3.44,2.92,5.83,4.73s5.28,3.58,8.24,5.53l2.24,1.46c.77.47,1.56.91,2.34,1.38l4.67,2.73c3,1.88,6.13,3.45,8.81,5-1.6-1,.59-.47,2.58.45,2.46,1.56,7.49,2.83,6.72,3.4l-.94-.43c1.67,1.58,7.14,4,11.5,5.6l1.1-.7a56.81,56.81,0,0,0,9.34,4.11c1.73.61,3.5,1.19,5.27,1.77.89.28,1.77.58,2.66.83l2.66.7c3.53.89,6.85,1.83,9.73,2.55a39.56,39.56,0,0,1,6.8,2.07c1.46.18,3.06.56,4.69.76s3.24.45,4.69.57l-.25.53,5.39,1.06c1.65.33,3.23.48,4.86.72l5.23.66,3,.36,3.5.23-2.08.24a23.33,23.33,0,0,0,6.41-.32c.87-.14,1.74-.29,2.7-.37s2-.11,3.34-.11l1.53.88c2.47.06,4.95.17,7.42.29l1.86.09h5.58c2.48,0,5,0,7.42-.19s4.9-.51,7.32-.89c-.15.14-.42.41-2,.56,4.66-.1,18-1.41,16.14-2.32.24.87,10.08-1.56,15.22-2.92l-.7.73a58.44,58.44,0,0,1,10.39-3.52c1.46-.28,1.38.13-.58.44a15.65,15.65,0,0,0,2.71-.65c.65-.22,1.13-.42,1.64-.63a27.24,27.24,0,0,1,5.08-1.57l-2.05,1c4.91-1.38,4.49-1.36,7-2.67,3-1.25,9.19-2.94,10.06-2.75a20.31,20.31,0,0,1,5.82-2.91c.45,0-.52.54-1,.8,2-.7,3.74-1.37,5.29-2s2.86-1.4,4.12-2a62.67,62.67,0,0,1,7.52-3.42c.18.11.56,0,1-.15-1.49.8-3,1.42-4.3,2l-3.5,1.56c-2,.87-3.09,1.36-2.87,1.24.2.47,5.24-1.7,1.55.74,1.93-1.08,4.52-2.59,7.25-4.08s5.45-3.2,7.89-4.29a3.62,3.62,0,0,1,.71-.17L380,455a24.44,24.44,0,0,0,3-1.63c1.52-.77,2.49-1.26,3.92-2.07a13.18,13.18,0,0,0,3.36-1.61l2.45-1.42c.79-.47,1.5-1,2.09-1.33-.49-.36,2.56-2.21-.5-.8.39-.2-.39.35-1.92,1.32-.34.22-.76.47-1,.63l.14-.13-5.86,3.41a28.89,28.89,0,0,1,6.33-3.88c1-1,2.09-2.2,2.73-2.8,1.78-.67,4.23-1.88,6.39-2.95,1.09-.52,2.07-1.06,2.84-1.48a8,8,0,0,1,1.64-.72l5.33-4c.95-.67,1.85-1.41,2.74-2.16l2.66-2.2c1.73-1.46,3.38-2.86,4.78-4.17a39.33,39.33,0,0,0,3.33-3.68,8.22,8.22,0,0,1,3-2c-1,1-2.2,2-2.66,2.62.85-.82,1.93-1.81,3.09-2.86l1.75-1.59,1.67-1.66c2.15-2.17,3.93-4.06,4.08-4.72,2.27-1.93,1.79-1.23,1.46-.77-.16.24-.28.41,0,.17a28,28,0,0,0,2.37-2.4l-.6,1a102.76,102.76,0,0,0,7.87-8c2.21-2.71,4.23-5.37,6.28-8.07s3.9-5.6,6.16-8.53c1.15-1.45,2.24-3,3.46-4.63s2.54-3.25,4-5a8.71,8.71,0,0,1-1.43,1.57c.77-1,1.55-2,2.29-3.07l2.13-3.21c1.41-2.15,2.84-4.32,4.21-6.52l3.85-6.8c.64-1.15,1.3-2.27,1.9-3.43l1.75-3.5c1.16-2.35,2.36-4.66,3.49-7l3.2-7.08c.54-1.18,1.11-2.33,1.61-3.51s1-2.37,1.49-3.54c1-2.35,2-4.67,3.05-7,2-5.34,1.79-6.08,2.56-9.48l1-1c.38-2,.66-3.95,1-5.92a53,53,0,0,1,1.64-5.77l1.74-5.54c.6-1.88,1.2-3.84,1.74-6a59,59,0,0,0,1.05-7.21l-.65,1.28c.36-1.88.9-4.87,1.23-7.32s.58-4.36.77-4a6.44,6.44,0,0,1,.14-2.76l.33-.08c.1-1.57.24-3.14.3-4.71l.09-4.71c.39-3.63.68-3.33,1-3.44s.31-.22.48-1a26.46,26.46,0,0,0,.45-4.95c0-4-.63-11.33-.88-9.83-.06,1.6-.3,4.08-.62,4.19l-.07-3.61c-.92-.67-1.8-3.4-2.67,5.36l.41,6.14-.6,1.94c.16-1.71.17-3.42.2-5.14a20.8,20.8,0,0,0-.27,3.73c0,1.09.07,2.07.12,3.12a7.55,7.55,0,0,0-.69,2.52l.42,6.06c-.22.35-.32-.34-.47-.62s-.25-.13-.61,1.85c.05,2.84,1.15-2.59.83,2.07-.79,2.86-1,2-1.1,5.42-.3.45-.36-.3-.29-1.66-.07,1.53-.24,3.55-.49,5.37a20.41,20.41,0,0,0-.37,4.28,46.69,46.69,0,0,0-1.34,6.13c-.44,2.12-.93,3.8-1.31,3.56a65.27,65.27,0,0,1-1.14,8.15c0-2.64-.47-.06-1.39,2.9s-1.88,6.39-2.24,5.58a17.33,17.33,0,0,1-.64,3.82c-.41,1.51-.95,3.23-1.54,5s-1.2,3.69-1.81,5.52-1.3,3.59-1.79,5.2a6.83,6.83,0,0,1,.46-1.65c-1.46,3.49-2.13,4.4-3.18,6.59.52.75-1.75,6.19-2.62,9.3-2.6,3.91.33-3-.93-1.93.33,0-.33,1.93-1,3.66s-1.36,3.26-.76,2.68c-2,2.95-1.6,2.62-3,3.94.57,1-1.29,3.05-2.28,5.86-3,4.22-1.46.69-4,5.73C469.46,364.63,471.65,360.12,471.65,360.12Zm-94.75,92.3h0l2.46-1.29Zm-10.15,5c1.26-.56,2.84-1.23,4.47-2,.43,0,.16.4-.89.84C370.84,455.84,368.36,456.84,366.75,457.39Zm23.17-7.69a6.91,6.91,0,0,1-2.39,1.21l2.72-1.64s.11-.12.15-.17A2.08,2.08,0,0,1,389.92,449.7Z"/><path class="cls-3" d="M392.37,447.44,393,447l-1,.45-.47.47Z"/><path class="cls-3" d="M408.23,46.59l-.19-.15a4.48,4.48,0,0,1,.37.35A2.25,2.25,0,0,1,408.23,46.59Z"/><polygon class="cls-3" points="214.46 471.81 214.45 471.96 215.43 472.06 214.46 471.81"/><path class="cls-3" d="M452.36,90.8a3.09,3.09,0,0,0,.4.74A5.65,5.65,0,0,0,452.36,90.8Z"/><path class="cls-3" d="M468,112.69l1.89,3.31C469.13,114.55,468.53,113.51,468,112.69Z"/><path class="cls-3" d="M478.23,130.68a1,1,0,0,0,.4.25l0,0Z"/><path class="cls-3" d="M198.63,14.4l-.76.24C196.12,15.29,197.32,14.86,198.63,14.4Z"/><path class="cls-3" d="M295.29,4.46c-1,0-2.07-.06-3.16-.14C293.86,4.59,295.2,4.77,295.29,4.46Z"/><path class="cls-3" d="M105.73,69.15s0,0,0,0l-.49.46Z"/><path class="cls-3" d="M287.59,4a38.23,38.23,0,0,0,4.54.35C290.71,4.17,289,4,287.59,4Z"/><path class="cls-3" d="M503.89,216l.11,1s.07,0,.1.1Z"/><path class="cls-3" d="M504.1,217l.15,1.1A5.06,5.06,0,0,0,504.1,217Z"/><path class="cls-3" d="M504.56,220.45l-.31-2.31A9.63,9.63,0,0,0,504.56,220.45Z"/><path class="cls-3" d="M499.66,188.93l-.26-.26C499.47,188.83,499.56,188.92,499.66,188.93Z"/><path class="cls-3" d="M497.69,180.85c.5,1.92.72,5,1.49,7.6l.22.22C498.79,187.48,498.54,182.58,497.69,180.85Z"/><path class="cls-3" d="M488.78,147c.88,2.18,1.64,4.41,2.47,6.6-.25-1.22-.58-2.84.65.13C489.22,145.26,492.16,155.64,488.78,147Z"/><path class="cls-3" d="M479.58,127.22c1.82,3.33.26-.18.46-.06a9.41,9.41,0,0,0-1.18-1.69C478.75,125.43,479,125.92,479.58,127.22Z"/><path class="cls-3" d="M365.84,21.61l.55-.31C363.7,20.16,366.29,21.47,365.84,21.61Z"/><path class="cls-3" d="M336.8,13.55c.87.36,1.75.7,2.59,1.12h1.41C339.48,14.25,338.15,13.86,336.8,13.55Z"/><polygon class="cls-3" points="320.52 5.54 321.79 5.76 316.98 4.84 320.52 5.54"/><path class="cls-3" d="M81.24,88l1.05-.28C83.51,86.2,83.22,85.41,81.24,88Z"/><path class="cls-3" d="M32.38,190.75a17.9,17.9,0,0,0-1.44,6.3c.25-1.26.55-2.52.8-3.62S32.29,191.4,32.38,190.75Z"/><path class="cls-3" d="M184.06,468.07l-2.23-.65c1.38.47,2.74,1,4.15,1.37C185.34,468.55,184.69,468.35,184.06,468.07Z"/><text class="cls-4" transform="translate(185.49 353.59) scale(0.65 1)">J</text><text class="cls-5" transform="matrix(1, 1, -0.71, 0.71, 215.75, 185.05)">I</text></svg>